Dinsy-Bold.ufo
<glyph name="exclam" format="2">
  <advance width="301" />
  <unicode hex="0021" />
  <outline>
    <contour>
      <point x="105" y="227" type="line" />
      <point x="196" y="227" type="line" />
      <point x="220" y="680" type="line" />
      <point x="81" y="680" type="line" />
    </contour>
    <contour>
      <point x="86" y="0" type="line" />
      <point x="216" y="0" type="line" />
      <point x="216" y="128" type="line" />
      <point x="86" y="128" type="line" />
    </contour>
  </outline>
</glyph>
<glyph name="quotedbl" format="2">
  <advance width="375" />
  <unicode hex="0022" />
  <outline>
    <contour>
      <point x="38" y="386" type="line" />
      <point x="153" y="386" type="line" />
      <point x="153" y="680" type="line" />
      <point x="38" y="680" type="line" />
    </contour>
    <contour>
      <point x="223" y="386" type="line" />
      <point x="338" y="386" type="line" />
      <point x="338" y="680" type="line" />
      <point x="223" y="680" type="line" />
    </contour>
  </outline>
</glyph>
<glyph name="numbersign" format="2">
  <advance width="547" />
  <unicode hex="0023" />
  <outline>
    <contour>
      <point x="73" y="0" type="line" />
      <point x="174" y="0" type="line" />
      <point x="201" y="201" type="line" />
      <point x="307" y="201" type="line" />
      <point x="280" y="0" type="line" />
      <point x="383" y="0" type="line" />
      <point x="410" y="201" type="line" />
      <point x="505" y="201" type="line" />
      <point x="505" y="291" type="line" />
      <point x="421" y="291" type="line" />
      <point x="435" y="400" type="line" />
      <point x="531" y="400" type="line" />
      <point x="531" y="491" type="line" />
      <point x="447" y="491" type="line" />
      <point x="471" y="680" type="line" />
      <point x="370" y="680" type="line" />
      <point x="345" y="491" type="line" />
      <point x="240" y="491" type="line" />
      <point x="264" y="680" type="line" />
      <point x="163" y="680" type="line" />
      <point x="138" y="491" type="line" />
      <point x="43" y="491" type="line" />
      <point x="43" y="400" type="line" />
      <point x="126" y="400" type="line" />
      <point x="111" y="291" type="line" />
      <point x="17" y="291" type="line" />
      <point x="17" y="201" type="line" />
      <point x="99" y="201" type="line" />
    </contour>
    <contour>
      <point x="213" y="291" type="line" />
      <point x="227" y="400" type="line" />
      <point x="334" y="400" type="line" />
      <point x="318" y="291" type="line" />
    </contour>
  </outline>
</glyph>
<glyph name="dollar" format="2">
  <advance width="503" />
  <unicode hex="0024" />
  <outline>
    <contour>
      <point x="199" y="-59" type="line" />
      <point x="296" y="-59" type="line" />
      <point x="296" y="33" type="line" />
      <point x="399" y="51" />
      <point x="460" y="114" />
      <point x="460" y="220" type="curve" smooth="yes" />
      <point x="460" y="318" />
      <point x="395" y="387" />
      <point x="293" y="398" type="curve" smooth="yes" />
      <point x="197" y="409" />
      <point x="162" y="435" />
      <point x="162" y="479" type="curve" smooth="yes" />
      <point x="162" y="527" />
      <point x="191" y="552" />
      <point x="244" y="552" type="curve" smooth="yes" />
      <point x="301" y="552" />
      <point x="329" y="527" />
      <point x="335" y="471" type="curve" />
      <point x="450" y="471" type="line" />
      <point x="444" y="571" />
      <point x="388" y="634" />
      <point x="296" y="651" type="curve" />
      <point x="296" y="729" type="line" />
      <point x="199" y="729" type="line" />
      <point x="199" y="651" type="line" />
      <point x="101" y="634" />
      <point x="43" y="568" />
      <point x="43" y="469" type="curve" smooth="yes" />
      <point x="43" y="371" />
      <point x="99" y="318" />
      <point x="210" y="297" type="curve" smooth="yes" />
      <point x="321" y="277" />
      <point x="340" y="257" />
      <point x="340" y="211" type="curve" smooth="yes" />
      <point x="340" y="159" />
      <point x="308" y="134" />
      <point x="247" y="134" type="curve" smooth="yes" />
      <point x="181" y="134" />
      <point x="149" y="159" />
      <point x="141" y="223" type="curve" />
      <point x="29" y="223" type="line" />
      <point x="35" y="113" />
      <point x="95" y="46" />
      <point x="199" y="32" type="curve" />
    </contour>
  </outline>
</glyph>
<glyph name="ampersand" format="2">
  <advance width="589" />
  <unicode hex="0026" />
  <anchor x="442" y="13" name="new anchor" />
  <outline>
    <contour>
      <point x="224" y="-11" type="curve" smooth="yes" />
      <point x="291" y="-11" />
      <point x="342" y="11" />
      <point x="391" y="66" type="curve" />
      <point x="435" y="5" />
      <point x="460" y="0" />
      <point x="496" y="0" type="curve" smooth="yes" />
      <point x="543" y="0" type="line" />
      <point x="543" y="106" type="line" />
      <point x="522" y="106" type="line" smooth="yes" />
      <point x="509" y="106" />
      <point x="495" y="114" />
      <point x="482" y="131" type="curve" smooth="yes" />
      <point x="463" y="157" type="line" />
      <point x="544" y="259" type="line" />
      <point x="467" y="327" type="line" />
      <point x="400" y="242" type="line" />
      <point x="315" y="358" type="line" />
      <point x="397" y="427" />
      <point x="425" y="474" />
      <point x="425" y="534" type="curve" smooth="yes" />
      <point x="425" y="620" />
      <point x="355" y="691" />
      <point x="260" y="691" type="curve" smooth="yes" />
      <point x="164" y="691" />
      <point x="93" y="622" />
      <point x="93" y="533" type="curve" smooth="yes" />
      <point x="93" y="485" />
      <point x="112" y="450" />
      <point x="165" y="375" type="curve" />
      <point x="77" y="302" />
      <point x="44" y="243" />
      <point x="44" y="168" type="curve" smooth="yes" />
      <point x="44" y="61" />
      <point x="111" y="-11" />
    </contour>
    <contour>
      <point x="161" y="177" type="curve" smooth="yes" />
      <point x="161" y="212" />
      <point x="179" y="243" />
      <point x="229" y="288" type="curve" />
      <point x="328" y="152" type="line" />
      <point x="291" y="108" />
      <point x="267" y="94" />
      <point x="235" y="94" type="curve" smooth="yes" />
      <point x="189" y="94" />
      <point x="161" y="125" />
    </contour>
    <contour>
      <point x="252" y="443" type="curve" />
      <point x="215" y="495" />
      <point x="208" y="513" />
      <point x="208" y="538" type="curve" smooth="yes" />
      <point x="208" y="572" />
      <point x="230" y="596" />
      <point x="261" y="596" type="curve" smooth="yes" />
      <point x="291" y="596" />
      <point x="314" y="572" />
      <point x="314" y="538" type="curve" smooth="yes" />
      <point x="314" y="507" />
      <point x="300" y="484" />
    </contour>
  </outline>
</glyph>
<glyph name="parenleft" format="2">
  <advance width="305" />
  <unicode hex="0028" />
  <outline>
    <contour>
      <point x="171" y="-83" type="curve" />
      <point x="261" y="-83" type="line" />
      <point x="199" y="42" />
      <point x="165" y="185" />
      <point x="165" y="323" type="curve" smooth="yes" />
      <point x="165" y="462" />
      <point x="197" y="604" />
      <point x="261" y="729" type="curve" />
      <point x="172" y="729" type="line" />
      <point x="87" y="606" />
      <point x="44" y="471" />
      <point x="44" y="323" type="curve" smooth="yes" />
      <point x="44" y="178" />
      <point x="87" y="42" />
    </contour>
  </outline>
</glyph>
<glyph name="parenright" format="2">
  <advance width="309" />
  <unicode hex="0029" />
  <outline>
    <contour>
      <point x="44" y="-83" type="curve" />
      <point x="135" y="-83" type="line" />
      <point x="220" y="40" />
      <point x="265" y="176" />
      <point x="265" y="323" type="curve" smooth="yes" />
      <point x="265" y="472" />
      <point x="220" y="609" />
      <point x="134" y="729" type="curve" />
      <point x="44" y="729" type="line" />
      <point x="111" y="606" />
      <point x="143" y="465" />
      <point x="143" y="323" type="curve" smooth="yes" />
      <point x="143" y="182" />
      <point x="109" y="39" />
    </contour>
  </outline>
</glyph>
<glyph name="asterisk" format="2">
  <advance width="381" />
  <unicode hex="002A" />
  <outline>
    <contour>
      <point x="157" y="383" type="line" />
      <point x="225" y="383" type="line" />
      <point x="225" y="479" type="line" />
      <point x="306" y="435" type="line" />
      <point x="338" y="488" type="line" />
      <point x="255" y="533" type="line" />
      <point x="337" y="578" type="line" />
      <point x="307" y="631" type="line" />
      <point x="225" y="586" type="line" />
      <point x="225" y="680" type="line" />
      <point x="157" y="680" type="line" />
      <point x="157" y="587" type="line" />
      <point x="75" y="631" type="line" />
      <point x="44" y="578" type="line" />
      <point x="126" y="533" type="line" />
      <point x="44" y="488" type="line" />
      <point x="75" y="435" type="line" />
      <point x="157" y="480" type="line" />
    </contour>
  </outline>
</glyph>
<glyph name="comma" format="2">
  <advance width="189" />
  <unicode hex="002C" />
  <outline>
    <contour>
      <point x="38" y="-160" type="line" />
      <point x="153" y="-63" type="line" />
      <point x="153" y="135" type="line" />
      <point x="38" y="135" type="line" />
    </contour>
  </outline>
</glyph>
<glyph name="hyphen" format="2">
  <advance width="387" />
  <unicode hex="002D" />
  <outline>
    <contour>
      <point x="58" y="284" type="line" />
      <point x="329" y="284" type="line" />
      <point x="329" y="397" type="line" />
      <point x="58" y="397" type="line" />
    </contour>
  </outline>
</glyph>
<glyph name="period" format="2">
  <advance width="256" />
  <unicode hex="002E" />
  <outline>
    <contour>
      <point x="60" y="0" type="line" />
      <point x="196" y="0" type="line" />
      <point x="196" y="139" type="line" />
      <point x="60" y="139" type="line" />
    </contour>
  </outline>
</glyph>
<glyph name="slash" format="2">
  <advance width="409" />
  <unicode hex="002F" />
  <outline>
    <contour>
      <point x="44" y="-10" type="line" />
      <point x="147" y="-10" type="line" />
      <point x="366" y="685" type="line" />
      <point x="263" y="685" type="line" />
    </contour>
  </outline>
</glyph>
<glyph name="zero" format="2">
  <advance width="518" />
  <unicode hex="0030" />
  <outline>
    <contour>
      <point x="261" y="-11" type="curve" smooth="yes" />
      <point x="403" y="-11" />
      <point x="470" y="69" />
      <point x="470" y="227" type="curve" smooth="yes" />
      <point x="470" y="460" type="line" smooth="yes" />
      <point x="470" y="612" />
      <point x="403" y="691" />
      <point x="261" y="691" type="curve" smooth="yes" />
      <point x="122" y="691" />
      <point x="50" y="611" />
      <point x="50" y="460" type="curve" smooth="yes" />
      <point x="50" y="227" type="line" smooth="yes" />
      <point x="50" y="68" />
      <point x="118" y="-11" />
    </contour>
    <contour>
      <point x="180" y="239" type="curve" smooth="yes" />
      <point x="180" y="442" type="line" smooth="yes" />
      <point x="180" y="541" />
      <point x="199" y="577" />
      <point x="261" y="577" type="curve" smooth="yes" />
      <point x="322" y="577" />
      <point x="341" y="541" />
      <point x="341" y="442" type="curve" smooth="yes" />
      <point x="341" y="239" type="line" smooth="yes" />
      <point x="341" y="139" />
      <point x="321" y="101" />
      <point x="261" y="101" type="curve" smooth="yes" />
      <point x="201" y="101" />
      <point x="180" y="139" />
    </contour>
  </outline>
</glyph>
<glyph name="one" format="2">
  <advance width="351" />
  <unicode hex="0031" />
  <outline>
    <contour>
      <point x="159" y="0" type="line" />
      <point x="288" y="0" type="line" />
      <point x="288" y="680" type="line" />
      <point x="159" y="680" type="line" />
      <point x="36" y="594" type="line" />
      <point x="36" y="456" type="line" />
      <point x="159" y="539" type="line" />
    </contour>
  </outline>
</glyph>
<glyph name="two" format="2">
  <advance width="485" />
  <unicode hex="0032" />
  <outline>
    <contour>
      <point x="47" y="0" type="line" />
      <point x="442" y="0" type="line" />
      <point x="442" y="114" type="line" />
      <point x="210" y="114" type="line" />
      <point x="379" y="333" type="line" smooth="yes" />
      <point x="419" y="385" />
      <point x="442" y="432" />
      <point x="442" y="492" type="curve" smooth="yes" />
      <point x="442" y="508" type="line" smooth="yes" />
      <point x="442" y="609" />
      <point x="363" y="691" />
      <point x="244" y="691" type="curve" smooth="yes" />
      <point x="123" y="691" />
      <point x="44" y="614" />
      <point x="44" y="507" type="curve" smooth="yes" />
      <point x="44" y="484" type="line" />
      <point x="169" y="484" type="line" />
      <point x="169" y="499" type="line" smooth="yes" />
      <point x="169" y="551" />
      <point x="195" y="581" />
      <point x="240" y="581" type="curve" smooth="yes" />
      <point x="284" y="581" />
      <point x="311" y="552" />
      <point x="311" y="504" type="curve" smooth="yes" />
      <point x="311" y="491" type="line" smooth="yes" />
      <point x="311" y="461" />
      <point x="298" y="429" />
      <point x="273" y="395" type="curve" smooth="yes" />
      <point x="47" y="102" type="line" />
    </contour>
  </outline>
</glyph>
<glyph name="three" format="2">
  <advance width="511" />
  <unicode hex="0033" />
  <outline>
    <contour>
      <point x="254" y="-11" type="curve" smooth="yes" />
      <point x="375" y="-11" />
      <point x="463" y="65" />
      <point x="463" y="188" type="curve" smooth="yes" />
      <point x="463" y="205" type="line" smooth="yes" />
      <point x="463" y="282" />
      <point x="431" y="338" />
      <point x="367" y="362" type="curve" />
      <point x="422" y="389" />
      <point x="452" y="437" />
      <point x="452" y="497" type="curve" smooth="yes" />
      <point x="452" y="512" type="line" smooth="yes" />
      <point x="452" y="621" />
      <point x="376" y="691" />
      <point x="252" y="691" type="curve" smooth="yes" />
      <point x="126" y="691" />
      <point x="51" y="622" />
      <point x="51" y="507" type="curve" smooth="yes" />
      <point x="51" y="492" type="line" />
      <point x="169" y="492" type="line" />
      <point x="169" y="507" type="line" smooth="yes" />
      <point x="169" y="553" />
      <point x="197" y="581" />
      <point x="248" y="581" type="curve" smooth="yes" />
      <point x="296" y="581" />
      <point x="326" y="551" />
      <point x="326" y="501" type="curve" smooth="yes" />
      <point x="326" y="488" type="line" smooth="yes" />
      <point x="326" y="435" />
      <point x="295" y="405" />
      <point x="240" y="405" type="curve" smooth="yes" />
      <point x="206" y="405" type="line" />
      <point x="206" y="295" type="line" />
      <point x="241" y="295" type="line" smooth="yes" />
      <point x="305" y="295" />
      <point x="337" y="265" />
      <point x="337" y="204" type="curve" smooth="yes" />
      <point x="337" y="188" type="line" smooth="yes" />
      <point x="337" y="133" />
      <point x="304" y="98" />
      <point x="252" y="98" type="curve" smooth="yes" />
      <point x="195" y="98" />
      <point x="165" y="123" />
      <point x="165" y="172" type="curve" smooth="yes" />
      <point x="165" y="186" type="line" />
      <point x="45" y="186" type="line" />
      <point x="45" y="167" type="line" smooth="yes" />
      <point x="45" y="54" />
      <point x="121" y="-11" />
    </contour>
  </outline>
</glyph>
<glyph name="four" format="2">
  <advance width="513" />
  <unicode hex="0034" />
  <outline>
    <contour>
      <point x="294" y="0" type="line" />
      <point x="423" y="0" type="line" />
      <point x="423" y="109" type="line" />
      <point x="479" y="109" type="line" />
      <point x="479" y="221" type="line" />
      <point x="423" y="221" type="line" />
      <point x="423" y="381" type="line" />
      <point x="294" y="381" type="line" />
      <point x="294" y="221" type="line" />
      <point x="164" y="221" type="line" />
      <point x="358" y="680" type="line" />
      <point x="229" y="680" type="line" />
      <point x="35" y="221" type="line" />
      <point x="35" y="109" type="line" />
      <point x="294" y="109" type="line" />
    </contour>
  </outline>
</glyph>
<glyph name="five" format="2">
  <advance width="489" />
  <unicode hex="0035" />
  <outline>
    <contour>
      <point x="241" y="-11" type="curve" smooth="yes" />
      <point x="366" y="-11" />
      <point x="441" y="63" />
      <point x="441" y="188" type="curve" smooth="yes" />
      <point x="441" y="251" type="line" smooth="yes" />
      <point x="441" y="378" />
      <point x="381" y="447" />
      <point x="267" y="447" type="curve" smooth="yes" />
      <point x="229" y="447" />
      <point x="196" y="437" />
      <point x="170" y="416" type="curve" />
      <point x="170" y="569" type="line" />
      <point x="426" y="569" type="line" />
      <point x="426" y="680" type="line" />
      <point x="59" y="680" type="line" />
      <point x="59" y="292" type="line" />
      <point x="170" y="292" type="line" />
      <point x="184" y="323" />
      <point x="208" y="339" />
      <point x="240" y="339" type="curve" smooth="yes" />
      <point x="292" y="339" />
      <point x="316" y="308" />
      <point x="316" y="244" type="curve" smooth="yes" />
      <point x="316" y="193" type="line" smooth="yes" />
      <point x="316" y="132" />
      <point x="291" y="98" />
      <point x="241" y="98" type="curve" smooth="yes" />
      <point x="195" y="98" />
      <point x="167" y="123" />
      <point x="167" y="165" type="curve" smooth="yes" />
      <point x="167" y="171" type="line" />
      <point x="49" y="171" type="line" />
      <point x="49" y="157" type="line" smooth="yes" />
      <point x="49" y="51" />
      <point x="124" y="-11" />
    </contour>
  </outline>
</glyph>
<glyph name="six" format="2">
  <advance width="522" />
  <unicode hex="0036" />
  <outline>
    <contour>
      <point x="263" y="-11" type="curve" smooth="yes" />
      <point x="394" y="-11" />
      <point x="480" y="66" />
      <point x="480" y="196" type="curve" smooth="yes" />
      <point x="480" y="224" type="line" smooth="yes" />
      <point x="480" y="341" />
      <point x="408" y="415" />
      <point x="298" y="415" type="curve" smooth="yes" />
      <point x="277" y="415" />
      <point x="259" y="411" />
      <point x="243" y="404" type="curve" />
      <point x="390" y="680" type="line" />
      <point x="253" y="680" type="line" />
      <point x="91" y="377" type="line" smooth="yes" />
      <point x="62" y="319" />
      <point x="45" y="271" />
      <point x="45" y="219" type="curve" smooth="yes" />
      <point x="45" y="192" type="line" smooth="yes" />
      <point x="45" y="63" />
      <point x="127" y="-11" />
    </contour>
    <contour>
      <point x="175" y="189" type="curve" smooth="yes" />
      <point x="175" y="217" type="line" smooth="yes" />
      <point x="175" y="274" />
      <point x="208" y="307" />
      <point x="263" y="307" type="curve" smooth="yes" />
      <point x="317" y="307" />
      <point x="351" y="273" />
      <point x="351" y="216" type="curve" smooth="yes" />
      <point x="351" y="190" type="line" smooth="yes" />
      <point x="351" y="134" />
      <point x="317" y="98" />
      <point x="263" y="98" type="curve" smooth="yes" />
      <point x="208" y="98" />
      <point x="175" y="133" />
    </contour>
  </outline>
</glyph>
<glyph name="seven" format="2">
  <advance width="449" />
  <unicode hex="0037" />
  <outline>
    <contour>
      <point x="84" y="0" type="line" />
      <point x="214" y="0" type="line" />
      <point x="420" y="568" type="line" />
      <point x="420" y="680" type="line" />
      <point x="30" y="680" type="line" />
      <point x="30" y="568" type="line" />
      <point x="294" y="568" type="line" />
    </contour>
  </outline>
</glyph>
<glyph name="eight" format="2">
  <advance width="517" />
  <unicode hex="0038" />
  <outline>
    <contour>
      <point x="258" y="-11" type="curve" smooth="yes" />
      <point x="379" y="-11" />
      <point x="467" y="67" />
      <point x="467" y="189" type="curve" smooth="yes" />
      <point x="467" y="211" type="line" smooth="yes" />
      <point x="467" y="270" />
      <point x="438" y="326" />
      <point x="386" y="357" type="curve" />
      <point x="426" y="382" />
      <point x="456" y="430" />
      <point x="456" y="488" type="curve" smooth="yes" />
      <point x="456" y="505" type="line" smooth="yes" />
      <point x="456" y="606" />
      <point x="380" y="691" />
      <point x="259" y="691" type="curve" smooth="yes" />
      <point x="138" y="691" />
      <point x="63" y="606" />
      <point x="63" y="505" type="curve" smooth="yes" />
      <point x="63" y="488" type="line" smooth="yes" />
      <point x="63" y="428" />
      <point x="89" y="382" />
      <point x="132" y="357" type="curve" />
      <point x="80" y="326" />
      <point x="49" y="271" />
      <point x="49" y="210" type="curve" smooth="yes" />
      <point x="49" y="188" type="line" smooth="yes" />
      <point x="49" y="69" />
      <point x="137" y="-11" />
    </contour>
    <contour>
      <point x="259" y="98" type="curve" smooth="yes" />
      <point x="207" y="98" />
      <point x="174" y="136" />
      <point x="174" y="189" type="curve" smooth="yes" />
      <point x="174" y="213" type="line" smooth="yes" />
      <point x="174" y="265" />
      <point x="209" y="301" />
      <point x="259" y="301" type="curve" smooth="yes" />
      <point x="311" y="301" />
      <point x="343" y="265" />
      <point x="343" y="213" type="curve" smooth="yes" />
      <point x="343" y="189" type="line" smooth="yes" />
      <point x="343" y="134" />
      <point x="311" y="98" />
    </contour>
    <contour>
      <point x="259" y="408" type="curve" smooth="yes" />
      <point x="215" y="408" />
      <point x="187" y="439" />
      <point x="187" y="487" type="curve" smooth="yes" />
      <point x="187" y="505" type="line" smooth="yes" />
      <point x="187" y="549" />
      <point x="215" y="581" />
      <point x="259" y="581" type="curve" smooth="yes" />
      <point x="303" y="581" />
      <point x="332" y="549" />
      <point x="332" y="505" type="curve" smooth="yes" />
      <point x="332" y="487" type="line" smooth="yes" />
      <point x="332" y="441" />
      <point x="303" y="408" />
    </contour>
  </outline>
</glyph>
<glyph name="nine" format="2">
  <advance width="508" />
  <unicode hex="0039" />
  <outline>
    <contour>
      <point x="128" y="0" type="line" />
      <point x="264" y="0" type="line" />
      <point x="419" y="302" type="line" smooth="yes" />
      <point x="448" y="360" />
      <point x="464" y="407" />
      <point x="464" y="459" type="curve" smooth="yes" />
      <point x="464" y="490" type="line" smooth="yes" />
      <point x="464" y="617" />
      <point x="385" y="691" />
      <point x="254" y="691" type="curve" smooth="yes" />
      <point x="127" y="691" />
      <point x="44" y="615" />
      <point x="44" y="486" type="curve" smooth="yes" />
      <point x="44" y="454" type="line" smooth="yes" />
      <point x="44" y="337" />
      <point x="114" y="265" />
      <point x="219" y="265" type="curve" smooth="yes" />
      <point x="238" y="265" />
      <point x="255" y="268" />
      <point x="269" y="275" type="curve" />
    </contour>
    <contour>
      <point x="173" y="461" type="curve" smooth="yes" />
      <point x="173" y="492" type="line" smooth="yes" />
      <point x="173" y="547" />
      <point x="204" y="581" />
      <point x="254" y="581" type="curve" smooth="yes" />
      <point x="304" y="581" />
      <point x="334" y="548" />
      <point x="334" y="492" type="curve" smooth="yes" />
      <point x="334" y="460" type="line" smooth="yes" />
      <point x="334" y="404" />
      <point x="304" y="372" />
      <point x="254" y="372" type="curve" smooth="yes" />
      <point x="204" y="372" />
      <point x="173" y="405" />
    </contour>
  </outline>
</glyph>
<glyph name="semicolon" format="2">
  <advance width="266" />
  <unicode hex="003B" />
  <outline>
    <contour>
      <point x="84" y="-160" type="line" />
      <point x="199" y="-63" type="line" />
      <point x="199" y="135" type="line" />
      <point x="84" y="135" type="line" />
    </contour>
    <contour>
      <point x="65" y="333" type="line" />
      <point x="201" y="333" type="line" />
      <point x="201" y="473" type="line" />
      <point x="65" y="473" type="line" />
    </contour>
  </outline>
</glyph>
<glyph name="less" format="2">
  <advance width="520" />
  <unicode hex="003C" />
  <outline>
    <contour>
      <point x="473" y="52" type="line" />
      <point x="473" y="166" type="line" />
      <point x="199" y="270" type="line" />
      <point x="473" y="374" type="line" />
      <point x="473" y="488" type="line" />
      <point x="47" y="321" type="line" />
      <point x="47" y="219" type="line" />
    </contour>
  </outline>
</glyph>
<glyph name="question" format="2">
  <advance width="460" />
  <unicode hex="003F" />
  <outline>
    <contour>
      <point x="160" y="190" type="line" />
      <point x="282" y="190" type="line" />
      <point x="282" y="229" type="line" smooth="yes" />
      <point x="282" y="264" />
      <point x="289" y="281" />
      <point x="312" y="308" type="curve" smooth="yes" />
      <point x="369" y="380" type="line" smooth="yes" />
      <point x="406" y="425" />
      <point x="423" y="465" />
      <point x="423" y="515" type="curve" smooth="yes" />
      <point x="423" y="618" />
      <point x="345" y="690" />
      <point x="224" y="690" type="curve" smooth="yes" />
      <point x="97" y="690" />
      <point x="29" y="624" />
      <point x="26" y="500" type="curve" />
      <point x="145" y="500" type="line" />
      <point x="147" y="552" />
      <point x="168" y="578" />
      <point x="220" y="578" type="curve" smooth="yes" />
      <point x="272" y="578" />
      <point x="297" y="553" />
      <point x="297" y="509" type="curve" smooth="yes" />
      <point x="297" y="482" />
      <point x="288" y="460" />
      <point x="258" y="425" type="curve" smooth="yes" />
      <point x="205" y="361" type="line" smooth="yes" />
      <point x="167" y="317" />
      <point x="160" y="294" />
      <point x="160" y="240" type="curve" smooth="yes" />
    </contour>
    <contour>
      <point x="156" y="0" type="line" />
      <point x="285" y="0" type="line" />
      <point x="285" y="124" type="line" />
      <point x="156" y="124" type="line" />
    </contour>
  </outline>
</glyph>
<glyph name="at" format="2">
  <advance width="859" />
  <unicode hex="0040" />
  <outline>
    <contour>
      <point x="430" y="-134" type="curve" smooth="yes" />
      <point x="526" y="-134" />
      <point x="601" y="-114" />
      <point x="678" y="-69" type="curve" />
      <point x="634" y="14" type="line" />
      <point x="567" y="-20" />
      <point x="509" y="-36" />
      <point x="430" y="-36" type="curve" smooth="yes" />
      <point x="260" y="-36" />
      <point x="155" y="76" />
      <point x="155" y="243" type="curve" smooth="yes" />
      <point x="155" y="314" type="line" smooth="yes" />
      <point x="155" y="485" />
      <point x="259" y="589" />
      <point x="430" y="589" type="curve" smooth="yes" />
      <point x="600" y="589" />
      <point x="705" y="483" />
      <point x="705" y="316" type="curve" smooth="yes" />
      <point x="705" y="246" type="line" smooth="yes" />
      <point x="705" y="173" />
      <point x="687" y="144" />
      <point x="650" y="144" type="curve" smooth="yes" />
      <point x="621" y="144" />
      <point x="602" y="164" />
      <point x="602" y="206" type="curve" smooth="yes" />
      <point x="602" y="487" type="line" />
      <point x="494" y="487" type="line" />
      <point x="494" y="447" type="line" />
      <point x="477" y="478" />
      <point x="441" y="497" />
      <point x="392" y="497" type="curve" smooth="yes" />
      <point x="296" y="497" />
      <point x="250" y="432" />
      <point x="250" y="318" type="curve" smooth="yes" />
      <point x="250" y="232" type="line" smooth="yes" />
      <point x="250" y="113" />
      <point x="300" y="53" />
      <point x="399" y="53" type="curve" smooth="yes" />
      <point x="463" y="53" />
      <point x="504" y="75" />
      <point x="525" y="117" type="curve" />
      <point x="548" y="77" />
      <point x="590" y="53" />
      <point x="649" y="53" type="curve" smooth="yes" />
      <point x="745" y="53" />
      <point x="816" y="120" />
      <point x="816" y="247" type="curve" smooth="yes" />
      <point x="816" y="316" type="line" smooth="yes" />
      <point x="816" y="533" />
      <point x="652" y="688" />
      <point x="430" y="688" type="curve" smooth="yes" />
      <point x="202" y="688" />
      <point x="44" y="534" />
      <point x="44" y="312" type="curve" smooth="yes" />
      <point x="44" y="242" type="line" smooth="yes" />
      <point x="44" y="20" />
      <point x="202" y="-134" />
    </contour>
    <contour>
      <point x="361" y="238" type="curve" smooth="yes" />
      <point x="361" y="318" type="line" smooth="yes" />
      <point x="361" y="372" />
      <point x="381" y="405" />
      <point x="427" y="405" type="curve" smooth="yes" />
      <point x="470" y="405" />
      <point x="492" y="376" />
      <point x="492" y="317" type="curve" smooth="yes" />
      <point x="492" y="235" type="line" smooth="yes" />
      <point x="492" y="176" />
      <point x="470" y="146" />
      <point x="427" y="146" type="curve" smooth="yes" />
      <point x="379" y="146" />
      <point x="361" y="178" />
    </contour>
  </outline>
</glyph>
<glyph name="A" format="2">
  <advance width="596" />
  <unicode hex="0041" />
  <anchor x="298" y="680" name="top" />
  <outline>
    <contour>
      <point x="4" y="0" type="line" />
      <point x="139" y="0" type="line" />
      <point x="181" y="132" type="line" />
      <point x="415" y="132" type="line" />
      <point x="456" y="0" type="line" />
      <point x="593" y="0" type="line" />
      <point x="351" y="680" type="line" />
      <point x="245" y="680" type="line" />
    </contour>
    <contour>
      <point x="215" y="240" type="line" />
      <point x="297" y="500" type="line" />
      <point x="380" y="240" type="line" />
    </contour>
  </outline>
</glyph>
<glyph name="B" format="2">
  <advance width="588" />
  <unicode hex="0042" />
  <outline>
    <contour>
      <point x="65" y="0" type="line" />
      <point x="338" y="0" type="line" smooth="yes" />
      <point x="469" y="0" />
      <point x="547" y="72" />
      <point x="547" y="195" type="curve" smooth="yes" />
      <point x="547" y="268" />
      <point x="514" y="323" />
      <point x="452" y="350" type="curve" />
      <point x="506" y="377" />
      <point x="538" y="431" />
      <point x="538" y="491" type="curve" smooth="yes" />
      <point x="538" y="612" />
      <point x="460" y="680" />
      <point x="327" y="680" type="curve" smooth="yes" />
      <point x="65" y="680" type="line" />
    </contour>
    <contour>
      <point x="195" y="113" type="line" />
      <point x="195" y="290" type="line" />
      <point x="325" y="290" type="line" smooth="yes" />
      <point x="387" y="290" />
      <point x="418" y="258" />
      <point x="418" y="204" type="curve" smooth="yes" />
      <point x="418" y="146" />
      <point x="387" y="113" />
      <point x="325" y="113" type="curve" smooth="yes" />
    </contour>
    <contour>
      <point x="195" y="402" type="line" />
      <point x="195" y="568" type="line" />
      <point x="318" y="568" type="line" smooth="yes" />
      <point x="377" y="568" />
      <point x="408" y="539" />
      <point x="408" y="483" type="curve" smooth="yes" />
      <point x="408" y="431" />
      <point x="377" y="402" />
      <point x="318" y="402" type="curve" smooth="yes" />
    </contour>
  </outline>
</glyph>
<glyph name="C" format="2">
  <advance width="605" />
  <unicode hex="0043" />
  <outline>
    <contour>
      <point x="306" y="-9" type="curve" smooth="yes" />
      <point x="468" y="-9" />
      <point x="555" y="77" />
      <point x="555" y="207" type="curve" smooth="yes" />
      <point x="555" y="214" type="line" />
      <point x="428" y="214" type="line" />
      <point x="428" y="206" type="line" smooth="yes" />
      <point x="428" y="147" />
      <point x="385" y="108" />
      <point x="309" y="108" type="curve" smooth="yes" />
      <point x="220" y="108" />
      <point x="180" y="157" />
      <point x="180" y="269" type="curve" smooth="yes" />
      <point x="180" y="407" type="line" smooth="yes" />
      <point x="180" y="526" />
      <point x="218" y="577" />
      <point x="307" y="577" type="curve" smooth="yes" />
      <point x="383" y="577" />
      <point x="428" y="531" />
      <point x="428" y="470" type="curve" smooth="yes" />
      <point x="428" y="467" type="line" />
      <point x="557" y="467" type="line" />
      <point x="557" y="471" type="line" smooth="yes" />
      <point x="557" y="605" />
      <point x="459" y="691" />
      <point x="308" y="691" type="curve" smooth="yes" />
      <point x="138" y="691" />
      <point x="50" y="597" />
      <point x="50" y="414" type="curve" smooth="yes" />
      <point x="50" y="267" type="line" smooth="yes" />
      <point x="50" y="83" />
      <point x="138" y="-9" />
    </contour>
  </outline>
</glyph>
<glyph name="D" format="2">
  <advance width="616" />
  <unicode hex="0044" />
  <outline>
    <contour>
      <point x="65" y="0" type="line" />
      <point x="307" y="0" type="line" smooth="yes" />
      <point x="468" y="0" />
      <point x="567" y="84" />
      <point x="567" y="279" type="curve" smooth="yes" />
      <point x="567" y="402" type="line" smooth="yes" />
      <point x="567" y="597" />
      <point x="472" y="680" />
      <point x="312" y="680" type="curve" smooth="yes" />
      <point x="65" y="680" type="line" />
    </contour>
    <contour>
      <point x="195" y="113" type="line" />
      <point x="195" y="568" type="line" />
      <point x="311" y="568" type="line" smooth="yes" />
      <point x="397" y="568" />
      <point x="438" y="516" />
      <point x="438" y="395" type="curve" smooth="yes" />
      <point x="438" y="280" type="line" smooth="yes" />
      <point x="438" y="164" />
      <point x="396" y="113" />
      <point x="311" y="113" type="curve" smooth="yes" />
    </contour>
  </outline>
</glyph>
<glyph name="E" format="2">
  <advance width="547" />
  <unicode hex="0045" />
  <anchor x="264" y="680" name="top" />
  <outline>
    <contour>
      <point x="58" y="0" type="line" />
      <point x="509" y="0" type="line" />
      <point x="509" y="113" type="line" />
      <point x="188" y="113" type="line" />
      <point x="188" y="287" type="line" />
      <point x="465" y="287" type="line" />
      <point x="465" y="399" type="line" />
      <point x="188" y="399" type="line" />
      <point x="188" y="568" type="line" />
      <point x="509" y="568" type="line" />
      <point x="509" y="680" type="line" />
      <point x="58" y="680" type="line" />
    </contour>
  </outline>
</glyph>
<glyph name="F" format="2">
  <advance width="547" />
  <unicode hex="0046" />
  <outline>
    <contour>
      <point x="58" y="0" type="line" />
      <point x="188" y="0" type="line" />
      <point x="188" y="286" type="line" />
      <point x="466" y="286" type="line" />
      <point x="466" y="398" type="line" />
      <point x="188" y="398" type="line" />
      <point x="188" y="568" type="line" />
      <point x="509" y="568" type="line" />
      <point x="509" y="680" type="line" />
      <point x="58" y="680" type="line" />
    </contour>
  </outline>
</glyph>
<glyph name="G" format="2">
  <advance width="591" />
  <unicode hex="0047" />
  <outline>
    <contour>
      <point x="296" y="-8" type="curve" smooth="yes" />
      <point x="460" y="-8" />
      <point x="542" y="79" />
      <point x="542" y="253" type="curve" smooth="yes" />
      <point x="542" y="369" type="line" />
      <point x="295" y="369" type="line" />
      <point x="295" y="263" type="line" />
      <point x="416" y="263" type="line" />
      <point x="416" y="231" type="line" smooth="yes" />
      <point x="416" y="148" />
      <point x="381" y="108" />
      <point x="302" y="108" type="curve" smooth="yes" />
      <point x="217" y="108" />
      <point x="179" y="153" />
      <point x="179" y="265" type="curve" smooth="yes" />
      <point x="179" y="412" type="line" smooth="yes" />
      <point x="179" y="529" />
      <point x="215" y="576" />
      <point x="297" y="576" type="curve" smooth="yes" />
      <point x="370" y="576" />
      <point x="413" y="530" />
      <point x="413" y="468" type="curve" smooth="yes" />
      <point x="413" y="462" type="line" />
      <point x="542" y="462" type="line" />
      <point x="542" y="468" type="line" smooth="yes" />
      <point x="542" y="607" />
      <point x="446" y="690" />
      <point x="298" y="690" type="curve" smooth="yes" />
      <point x="132" y="690" />
      <point x="49" y="599" />
      <point x="49" y="418" type="curve" smooth="yes" />
      <point x="49" y="263" type="line" smooth="yes" />
      <point x="49" y="82" />
      <point x="132" y="-8" />
    </contour>
  </outline>
</glyph>
<glyph name="H" format="2">
  <advance width="599" />
  <unicode hex="0048" />
  <outline>
    <contour>
      <point x="58" y="0" type="line" />
      <point x="188" y="0" type="line" />
      <point x="188" y="288" type="line" />
      <point x="413" y="288" type="line" />
      <point x="413" y="0" type="line" />
      <point x="542" y="0" type="line" />
      <point x="542" y="680" type="line" />
      <point x="413" y="680" type="line" />
      <point x="413" y="400" type="line" />
      <point x="188" y="400" type="line" />
      <point x="188" y="680" type="line" />
      <point x="58" y="680" type="line" />
    </contour>
  </outline>
</glyph>
<glyph name="I" format="2">
  <advance width="244" />
  <unicode hex="0049" />
  <anchor x="121" y="680" name="top" />
  <outline>
    <contour>
      <point x="58" y="0" type="line" />
      <point x="187" y="0" type="line" />
      <point x="187" y="680" type="line" />
      <point x="58" y="680" type="line" />
    </contour>
  </outline>
</glyph>
<glyph name="J" format="2">
  <advance width="334" />
  <unicode hex="004A" />
  <anchor x="205" y="680" name="top" />
  <outline>
    <contour>
      <point x="24" y="0" type="line" />
      <point x="110" y="0" type="line" smooth="yes" />
      <point x="213" y="0" />
      <point x="270" y="56" />
      <point x="270" y="160" type="curve" smooth="yes" />
      <point x="270" y="680" type="line" />
      <point x="140" y="680" type="line" />
      <point x="140" y="181" type="line" smooth="yes" />
      <point x="140" y="130" />
      <point x="124" y="114" />
      <point x="79" y="114" type="curve" smooth="yes" />
      <point x="24" y="114" type="line" />
    </contour>
  </outline>
</glyph>
<glyph name="K" format="2">
  <advance width="620" />
  <unicode hex="004B" />
  <outline>
    <contour>
      <point x="65" y="0" type="line" />
      <point x="195" y="0" type="line" />
      <point x="195" y="190" type="line" />
      <point x="284" y="302" type="line" />
      <point x="452" y="0" type="line" />
      <point x="601" y="0" type="line" />
      <point x="367" y="407" type="line" />
      <point x="584" y="680" type="line" />
      <point x="429" y="680" type="line" />
      <point x="195" y="363" type="line" />
      <point x="195" y="680" type="line" />
      <point x="65" y="680" type="line" />
    </contour>
  </outline>
</glyph>
<glyph name="L" format="2">
  <advance width="508" />
  <unicode hex="004C" />
  <outline>
    <contour>
      <point x="58" y="0" type="line" />
      <point x="485" y="0" type="line" />
      <point x="485" y="113" type="line" />
      <point x="188" y="113" type="line" />
      <point x="188" y="680" type="line" />
      <point x="58" y="680" type="line" />
    </contour>
  </outline>
</glyph>
<glyph name="M" format="2">
  <advance width="757" />
  <unicode hex="004D" />
  <outline>
    <contour>
      <point x="65" y="0" type="line" />
      <point x="195" y="0" type="line" />
      <point x="195" y="414" type="line" />
      <point x="337" y="131" type="line" />
      <point x="423" y="131" type="line" />
      <point x="563" y="411" type="line" />
      <point x="563" y="0" type="line" />
      <point x="692" y="0" type="line" />
      <point x="692" y="680" type="line" />
      <point x="563" y="680" type="line" />
      <point x="380" y="300" type="line" />
      <point x="195" y="680" type="line" />
      <point x="65" y="680" type="line" />
    </contour>
  </outline>
</glyph>
<glyph name="N" format="2">
  <advance width="624" />
  <unicode hex="004E" />
  <anchor x="313" y="680" name="top" />
  <outline>
    <contour>
      <point x="58" y="0" type="line" />
      <point x="188" y="0" type="line" />
      <point x="188" y="424" type="line" />
      <point x="438" y="0" type="line" />
      <point x="567" y="0" type="line" />
      <point x="567" y="680" type="line" />
      <point x="438" y="680" type="line" />
      <point x="438" y="254" type="line" />
      <point x="188" y="680" type="line" />
      <point x="58" y="680" type="line" />
    </contour>
  </outline>
</glyph>
<glyph name="O" format="2">
  <advance width="591" />
  <unicode hex="004F" />
  <anchor x="295" y="680" name="top" />
  <outline>
    <contour>
      <point x="292" y="-8" type="curve" smooth="yes" />
      <point x="444" y="-8" />
      <point x="542" y="70" />
      <point x="542" y="263" type="curve" smooth="yes" />
      <point x="542" y="418" type="line" smooth="yes" />
      <point x="542" y="611" />
      <point x="448" y="690" />
      <point x="296" y="690" type="curve" smooth="yes" />
      <point x="132" y="690" />
      <point x="49" y="599" />
      <point x="49" y="418" type="curve" smooth="yes" />
      <point x="49" y="263" type="line" smooth="yes" />
      <point x="49" y="82" />
      <point x="130" y="-8" />
    </contour>
    <contour>
      <point x="179" y="265" type="curve" smooth="yes" />
      <point x="179" y="412" type="line" smooth="yes" />
      <point x="179" y="529" />
      <point x="214" y="576" />
      <point x="296" y="576" type="curve" smooth="yes" />
      <point x="375" y="576" />
      <point x="413" y="527" />
      <point x="413" y="412" type="curve" smooth="yes" />
      <point x="413" y="265" type="line" smooth="yes" />
      <point x="413" y="155" />
      <point x="375" y="108" />
      <point x="296" y="108" type="curve" smooth="yes" />
      <point x="214" y="108" />
      <point x="179" y="153" />
    </contour>
  </outline>
</glyph>
<glyph name="P" format="2">
  <advance width="571" />
  <unicode hex="0050" />
  <outline>
    <contour>
      <point x="65" y="0" type="line" />
      <point x="195" y="0" type="line" />
      <point x="195" y="258" type="line" />
      <point x="320" y="258" type="line" smooth="yes" />
      <point x="458" y="258" />
      <point x="542" y="339" />
      <point x="542" y="466" type="curve" smooth="yes" />
      <point x="542" y="598" />
      <point x="458" y="680" />
      <point x="320" y="680" type="curve" smooth="yes" />
      <point x="65" y="680" type="line" />
    </contour>
    <contour>
      <point x="195" y="371" type="line" />
      <point x="195" y="568" type="line" />
      <point x="313" y="568" type="line" smooth="yes" />
      <point x="376" y="568" />
      <point x="413" y="531" />
      <point x="413" y="466" type="curve" smooth="yes" />
      <point x="413" y="406" />
      <point x="374" y="371" />
      <point x="313" y="371" type="curve" smooth="yes" />
    </contour>
  </outline>
</glyph>
<glyph name="Q" format="2">
  <advance width="591" />
  <unicode hex="0051" />
  <anchor x="295" y="680" name="top" />
  <outline>
    <contour>
      <point x="422" y="-152" type="line" />
      <point x="521" y="-97" type="line" />
      <point x="449" y="35" type="line" />
      <point x="511" y="78" />
      <point x="542" y="154" />
      <point x="542" y="263" type="curve" smooth="yes" />
      <point x="542" y="418" type="line" smooth="yes" />
      <point x="542" y="611" />
      <point x="448" y="690" />
      <point x="296" y="690" type="curve" smooth="yes" />
      <point x="132" y="690" />
      <point x="49" y="599" />
      <point x="49" y="418" type="curve" smooth="yes" />
      <point x="49" y="263" type="line" smooth="yes" />
      <point x="49" y="82" />
      <point x="130" y="-8" />
      <point x="292" y="-8" type="curve" smooth="yes" />
      <point x="310" y="-8" />
      <point x="327" y="-7" />
      <point x="342" y="-5" type="curve" />
    </contour>
    <contour>
      <point x="179" y="265" type="curve" smooth="yes" />
      <point x="179" y="412" type="line" smooth="yes" />
      <point x="179" y="529" />
      <point x="214" y="576" />
      <point x="296" y="576" type="curve" smooth="yes" />
      <point x="375" y="576" />
      <point x="413" y="527" />
      <point x="413" y="412" type="curve" smooth="yes" />
      <point x="413" y="265" type="line" smooth="yes" />
      <point x="413" y="155" />
      <point x="375" y="108" />
      <point x="296" y="108" type="curve" smooth="yes" />
      <point x="214" y="108" />
      <point x="179" y="153" />
    </contour>
  </outline>
</glyph>
<glyph name="R" format="2">
  <advance width="591" />
  <unicode hex="0052" />
  <outline>
    <contour>
      <point x="58" y="0" type="line" />
      <point x="188" y="0" type="line" />
      <point x="188" y="276" type="line" />
      <point x="284" y="276" type="line" />
      <point x="413" y="0" type="line" />
      <point x="562" y="0" type="line" />
      <point x="414" y="295" type="line" />
      <point x="491" y="324" />
      <point x="534" y="389" />
      <point x="534" y="477" type="curve" smooth="yes" />
      <point x="534" y="602" />
      <point x="449" y="680" />
      <point x="316" y="680" type="curve" smooth="yes" />
      <point x="58" y="680" type="line" />
    </contour>
    <contour>
      <point x="188" y="383" type="line" />
      <point x="188" y="568" type="line" />
      <point x="310" y="568" type="line" smooth="yes" />
      <point x="369" y="568" />
      <point x="405" y="533" />
      <point x="405" y="477" type="curve" smooth="yes" />
      <point x="405" y="417" />
      <point x="369" y="383" />
      <point x="310" y="383" type="curve" smooth="yes" />
    </contour>
  </outline>
</glyph>
<glyph name="S" format="2">
  <advance width="541" />
  <unicode hex="0053" />
  <anchor x="270" y="680" name="top" />
  <outline>
    <contour>
      <point x="265" y="-6" type="curve" smooth="yes" />
      <point x="413" y="-6" />
      <point x="507" y="68" />
      <point x="507" y="205" type="curve" smooth="yes" />
      <point x="507" y="312" />
      <point x="449" y="375" />
      <point x="332" y="396" type="curve" smooth="yes" />
      <point x="260" y="409" type="line" smooth="yes" />
      <point x="196" y="420" />
      <point x="166" y="446" />
      <point x="166" y="494" type="curve" smooth="yes" />
      <point x="166" y="548" />
      <point x="200" y="581" />
      <point x="267" y="581" type="curve" smooth="yes" />
      <point x="333" y="581" />
      <point x="368" y="551" />
      <point x="371" y="487" type="curve" />
      <point x="371" y="467" type="line" />
      <point x="495" y="467" type="line" />
      <point x="495" y="487" type="line" />
      <point x="486" y="615" />
      <point x="405" y="690" />
      <point x="270" y="690" type="curve" smooth="yes" />
      <point x="132" y="690" />
      <point x="41" y="612" />
      <point x="41" y="485" type="curve" smooth="yes" />
      <point x="41" y="379" />
      <point x="102" y="316" />
      <point x="225" y="295" type="curve" smooth="yes" />
      <point x="290" y="285" type="line" smooth="yes" />
      <point x="353" y="275" />
      <point x="380" y="248" />
      <point x="380" y="194" type="curve" smooth="yes" />
      <point x="380" y="135" />
      <point x="344" y="105" />
      <point x="271" y="105" type="curve" smooth="yes" />
      <point x="194" y="105" />
      <point x="159" y="136" />
      <point x="149" y="200" type="curve" />
      <point x="149" y="212" type="line" />
      <point x="27" y="212" type="line" />
      <point x="27" y="200" type="line" />
      <point x="37" y="72" />
      <point x="118" y="-6" />
    </contour>
  </outline>
</glyph>
<glyph name="T" format="2">
  <advance width="528" />
  <unicode hex="0054" />
  <outline>
    <contour>
      <point x="199" y="0" type="line" />
      <point x="330" y="0" type="line" />
      <point x="330" y="568" type="line" />
      <point x="511" y="568" type="line" />
      <point x="511" y="680" type="line" />
      <point x="17" y="680" type="line" />
      <point x="17" y="568" type="line" />
      <point x="199" y="568" type="line" />
    </contour>
  </outline>
</glyph>
<glyph name="U" format="2">
  <advance width="604" />
  <unicode hex="0055" />
  <anchor x="302" y="680" name="top" />
  <outline>
    <contour>
      <point x="301" y="-6" type="curve" smooth="yes" />
      <point x="440" y="-6" />
      <point x="546" y="91" />
      <point x="546" y="224" type="curve" smooth="yes" />
      <point x="546" y="680" type="line" />
      <point x="417" y="680" type="line" />
      <point x="417" y="229" type="line" smooth="yes" />
      <point x="417" y="152" />
      <point x="372" y="107" />
      <point x="301" y="107" type="curve" smooth="yes" />
      <point x="230" y="107" />
      <point x="188" y="152" />
      <point x="188" y="229" type="curve" smooth="yes" />
      <point x="188" y="680" type="line" />
      <point x="58" y="680" type="line" />
      <point x="58" y="224" type="line" smooth="yes" />
      <point x="58" y="91" />
      <point x="163" y="-6" />
    </contour>
  </outline>
</glyph>
<glyph name="V" format="2">
  <advance width="577" />
  <unicode hex="0056" />
  <outline>
    <contour>
      <point x="236" y="0" type="line" />
      <point x="340" y="0" type="line" />
      <point x="567" y="680" type="line" />
      <point x="431" y="680" type="line" />
      <point x="289" y="204" type="line" />
      <point x="145" y="680" type="line" />
      <point x="10" y="680" type="line" />
    </contour>
  </outline>
</glyph>
<glyph name="W" format="2">
  <advance width="820" />
  <unicode hex="0057" />
  <outline>
    <contour>
      <point x="171" y="0" type="line" />
      <point x="289" y="0" type="line" />
      <point x="412" y="503" type="line" />
      <point x="536" y="0" type="line" />
      <point x="654" y="0" type="line" />
      <point x="817" y="680" type="line" />
      <point x="696" y="680" type="line" />
      <point x="600" y="200" type="line" />
      <point x="495" y="680" type="line" />
      <point x="335" y="680" type="line" />
      <point x="236" y="200" type="line" />
      <point x="133" y="680" type="line" />
      <point x="4" y="680" type="line" />
    </contour>
  </outline>
</glyph>
<glyph name="X" format="2">
  <advance width="584" />
  <unicode hex="0058" />
  <outline>
    <contour>
      <point x="4" y="0" type="line" />
      <point x="151" y="0" type="line" />
      <point x="290" y="251" type="line" />
      <point x="426" y="0" type="line" />
      <point x="580" y="0" type="line" />
      <point x="366" y="359" type="line" />
      <point x="558" y="680" type="line" />
      <point x="411" y="680" type="line" />
      <point x="292" y="459" type="line" />
      <point x="172" y="680" type="line" />
      <point x="19" y="680" type="line" />
      <point x="215" y="354" type="line" />
    </contour>
  </outline>
</glyph>
<glyph name="Y" format="2">
  <advance width="558" />
  <unicode hex="0059" />
  <anchor x="268" y="680" name="top" />
  <outline>
    <contour>
      <point x="215" y="0" type="line" />
      <point x="344" y="0" type="line" />
      <point x="344" y="280" type="line" />
      <point x="550" y="680" type="line" />
      <point x="407" y="680" type="line" />
      <point x="278" y="401" type="line" />
      <point x="149" y="680" type="line" />
      <point x="7" y="680" type="line" />
      <point x="215" y="279" type="line" />
    </contour>
  </outline>
</glyph>
<glyph name="Z" format="2">
  <advance width="520" />
  <unicode hex="005A" />
  <anchor x="258" y="680" name="top" />
  <outline>
    <contour>
      <point x="40" y="0" type="line" />
      <point x="480" y="0" type="line" />
      <point x="480" y="114" type="line" />
      <point x="180" y="114" type="line" />
      <point x="472" y="568" type="line" />
      <point x="472" y="680" type="line" />
      <point x="46" y="680" type="line" />
      <point x="46" y="568" type="line" />
      <point x="332" y="568" type="line" />
      <point x="40" y="114" type="line" />
    </contour>
  </outline>
</glyph>
<glyph name="bracketleft" format="2">
  <advance width="310" />
  <unicode hex="005B" />
  <outline>
    <contour>
      <point x="58" y="-83" type="line" />
      <point x="265" y="-83" type="line" />
      <point x="265" y="31" type="line" />
      <point x="180" y="31" type="line" />
      <point x="180" y="617" type="line" />
      <point x="265" y="617" type="line" />
      <point x="265" y="730" type="line" />
      <point x="58" y="730" type="line" />
    </contour>
  </outline>
</glyph>
<glyph name="bracketright" format="2">
  <advance width="318" />
  <unicode hex="005D" />
  <outline>
    <contour>
      <point x="44" y="-83" type="line" />
      <point x="261" y="-83" type="line" />
      <point x="261" y="727" type="line" />
      <point x="44" y="727" type="line" />
      <point x="44" y="615" type="line" />
      <point x="139" y="615" type="line" />
      <point x="139" y="31" type="line" />
      <point x="44" y="31" type="line" />
    </contour>
  </outline>
</glyph>
<glyph name="asciicircum" format="2">
  <advance width="520" />
  <unicode hex="005E" />
  <outline>
    <contour>
      <point x="41" y="267" type="line" />
      <point x="142" y="267" type="line" />
      <point x="260" y="567" type="line" />
      <point x="377" y="267" type="line" />
      <point x="479" y="267" type="line" />
      <point x="312" y="685" type="line" />
      <point x="209" y="685" type="line" />
    </contour>
  </outline>
</glyph>
<glyph name="underscore" format="2">
  <advance width="492" />
  <unicode hex="005F" />
  <outline>
    <contour>
      <point x="0" y="-119" type="line" />
      <point x="492" y="-119" type="line" />
      <point x="492" y="-39" type="line" />
      <point x="0" y="-39" type="line" />
    </contour>
  </outline>
</glyph>
<glyph name="grave" format="2">
  <advance width="492" />
  <unicode hex="0060" />
  <outline>
    <contour>
      <point x="249" y="579" type="line" />
      <point x="358" y="579" type="line" />
      <point x="244" y="710" type="line" />
      <point x="103" y="710" type="line" />
    </contour>
  </outline>
</glyph>
<glyph name="a" format="2">
  <advance width="521" />
  <unicode hex="0061" />
  <anchor x="252" y="512" name="top" />
  <outline>
    <contour>
      <point x="214" y="-6" type="curve" smooth="yes" />
      <point x="272" y="-6" />
      <point x="306" y="9" />
      <point x="343" y="45" type="curve" />
      <point x="343" y="0" type="line" />
      <point x="461" y="0" type="line" />
      <point x="461" y="334" type="line" smooth="yes" />
      <point x="461" y="454" />
      <point x="387" y="518" />
      <point x="252" y="518" type="curve" smooth="yes" />
      <point x="133" y="518" />
      <point x="56" y="459" />
      <point x="56" y="363" type="curve" smooth="yes" />
      <point x="56" y="359" type="line" />
      <point x="170" y="359" type="line" />
      <point x="170" y="362" type="line" smooth="yes" />
      <point x="170" y="399" />
      <point x="198" y="424" />
      <point x="250" y="424" type="curve" smooth="yes" />
      <point x="310" y="424" />
      <point x="340" y="396" />
      <point x="340" y="340" type="curve" smooth="yes" />
      <point x="340" y="302" type="line" />
      <point x="223" y="302" type="line" smooth="yes" />
      <point x="108" y="302" />
      <point x="42" y="247" />
      <point x="42" y="154" type="curve" smooth="yes" />
      <point x="42" y="53" />
      <point x="103" y="-6" />
    </contour>
    <contour>
      <point x="160" y="157" type="curve" smooth="yes" />
      <point x="160" y="198" />
      <point x="188" y="218" />
      <point x="244" y="218" type="curve" smooth="yes" />
      <point x="340" y="218" type="line" />
      <point x="340" y="184" type="line" smooth="yes" />
      <point x="340" y="123" />
      <point x="309" y="92" />
      <point x="241" y="92" type="curve" smooth="yes" />
      <point x="188" y="92" />
      <point x="160" y="114" />
    </contour>
  </outline>
</glyph>
<glyph name="b" format="2">
  <advance width="512" />
  <unicode hex="0062" />
  <outline>
    <contour>
      <point x="303" y="-6" type="curve" smooth="yes" />
      <point x="401" y="-6" />
      <point x="473" y="63" />
      <point x="473" y="206" type="curve" smooth="yes" />
      <point x="473" y="307" type="line" smooth="yes" />
      <point x="473" y="449" />
      <point x="401" y="518" />
      <point x="300" y="518" type="curve" smooth="yes" />
      <point x="251" y="518" />
      <point x="213" y="498" />
      <point x="185" y="460" type="curve" />
      <point x="185" y="680" type="line" />
      <point x="63" y="680" type="line" />
      <point x="63" y="0" type="line" />
      <point x="182" y="0" type="line" />
      <point x="182" y="47" type="line" />
      <point x="211" y="12" />
      <point x="251" y="-6" />
    </contour>
    <contour>
      <point x="184" y="210" type="curve" smooth="yes" />
      <point x="184" y="302" type="line" smooth="yes" />
      <point x="184" y="371" />
      <point x="217" y="410" />
      <point x="269" y="410" type="curve" smooth="yes" />
      <point x="319" y="410" />
      <point x="351" y="379" />
      <point x="351" y="302" type="curve" smooth="yes" />
      <point x="351" y="210" type="line" smooth="yes" />
      <point x="351" y="139" />
      <point x="325" y="102" />
      <point x="272" y="102" type="curve" smooth="yes" />
      <point x="216" y="102" />
      <point x="184" y="140" />
    </contour>
  </outline>
</glyph>
<glyph name="c" format="2">
  <advance width="497" />
  <unicode hex="0063" />
  <outline>
    <contour>
      <point x="252" y="-6" type="curve" smooth="yes" />
      <point x="379" y="-6" />
      <point x="453" y="63" />
      <point x="453" y="176" type="curve" smooth="yes" />
      <point x="453" y="183" type="line" />
      <point x="337" y="183" type="line" />
      <point x="337" y="177" type="line" smooth="yes" />
      <point x="337" y="129" />
      <point x="306" y="102" />
      <point x="254" y="102" type="curve" smooth="yes" />
      <point x="198" y="102" />
      <point x="165" y="133" />
      <point x="165" y="210" type="curve" smooth="yes" />
      <point x="165" y="302" type="line" smooth="yes" />
      <point x="165" y="373" />
      <point x="195" y="410" />
      <point x="254" y="410" type="curve" smooth="yes" />
      <point x="306" y="410" />
      <point x="337" y="380" />
      <point x="337" y="332" type="curve" smooth="yes" />
      <point x="337" y="326" type="line" />
      <point x="453" y="326" type="line" />
      <point x="453" y="336" type="line" smooth="yes" />
      <point x="453" y="449" />
      <point x="379" y="518" />
      <point x="252" y="518" type="curve" smooth="yes" />
      <point x="123" y="518" />
      <point x="44" y="450" />
      <point x="44" y="304" type="curve" smooth="yes" />
      <point x="44" y="209" type="line" smooth="yes" />
      <point x="44" y="63" />
      <point x="123" y="-6" />
    </contour>
  </outline>
</glyph>
<glyph name="d" format="2">
  <advance width="511" />
  <unicode hex="0064" />
  <outline>
    <contour>
      <point x="209" y="-6" type="curve" smooth="yes" />
      <point x="260" y="-6" />
      <point x="301" y="12" />
      <point x="329" y="47" type="curve" />
      <point x="329" y="0" type="line" />
      <point x="448" y="0" type="line" />
      <point x="448" y="680" type="line" />
      <point x="327" y="680" type="line" />
      <point x="327" y="460" type="line" />
      <point x="299" y="498" />
      <point x="259" y="518" />
      <point x="208" y="518" type="curve" smooth="yes" />
      <point x="108" y="518" />
      <point x="39" y="449" />
      <point x="39" y="307" type="curve" smooth="yes" />
      <point x="39" y="206" type="line" smooth="yes" />
      <point x="39" y="63" />
      <point x="110" y="-6" />
    </contour>
    <contour>
      <point x="161" y="210" type="curve" smooth="yes" />
      <point x="161" y="302" type="line" smooth="yes" />
      <point x="161" y="373" />
      <point x="188" y="410" />
      <point x="243" y="410" type="curve" smooth="yes" />
      <point x="295" y="410" />
      <point x="327" y="371" />
      <point x="327" y="302" type="curve" smooth="yes" />
      <point x="327" y="210" type="line" smooth="yes" />
      <point x="327" y="140" />
      <point x="296" y="102" />
      <point x="240" y="102" type="curve" smooth="yes" />
      <point x="187" y="102" />
      <point x="161" y="139" />
    </contour>
  </outline>
</glyph>
<glyph name="e" format="2">
  <advance width="519" />
  <unicode hex="0065" />
  <anchor x="254" y="512" name="top" />
  <outline>
    <contour>
      <point x="265" y="-7" type="curve" smooth="yes" />
      <point x="391" y="-7" />
      <point x="470" y="58" />
      <point x="471" y="156" type="curve" smooth="yes" />
      <point x="471" y="161" type="line" />
      <point x="354" y="161" type="line" />
      <point x="353" y="158" type="line" />
      <point x="351" y="121" />
      <point x="319" y="99" />
      <point x="269" y="99" type="curve" smooth="yes" />
      <point x="202" y="99" />
      <point x="165" y="131" />
      <point x="165" y="209" type="curve" smooth="yes" />
      <point x="165" y="220" type="line" />
      <point x="475" y="220" type="line" />
      <point x="475" y="287" type="line" smooth="yes" />
      <point x="475" y="439" />
      <point x="392" y="519" />
      <point x="261" y="519" type="curve" smooth="yes" />
      <point x="126" y="519" />
      <point x="44" y="440" />
      <point x="44" y="286" type="curve" smooth="yes" />
      <point x="44" y="227" type="line" smooth="yes" />
      <point x="44" y="69" />
      <point x="130" y="-7" />
    </contour>
    <contour>
      <point x="165" y="304" type="line" />
      <point x="165" y="306" type="line" smooth="yes" />
      <point x="165" y="382" />
      <point x="200" y="415" />
      <point x="261" y="415" type="curve" smooth="yes" />
      <point x="321" y="415" />
      <point x="353" y="382" />
      <point x="353" y="316" type="curve" smooth="yes" />
      <point x="353" y="304" type="line" />
    </contour>
  </outline>
</glyph>
<glyph name="f" format="2">
  <advance width="324" />
  <unicode hex="0066" />
  <outline>
    <contour>
      <point x="88" y="0" type="line" />
      <point x="210" y="0" type="line" />
      <point x="210" y="426" type="line" />
      <point x="301" y="426" type="line" />
      <point x="301" y="512" type="line" />
      <point x="210" y="512" type="line" />
      <point x="210" y="547" type="line" smooth="yes" />
      <point x="210" y="580" />
      <point x="226" y="597" />
      <point x="261" y="597" type="curve" smooth="yes" />
      <point x="301" y="597" type="line" />
      <point x="301" y="680" type="line" />
      <point x="231" y="680" type="line" smooth="yes" />
      <point x="140" y="680" />
      <point x="88" y="629" />
      <point x="88" y="543" type="curve" smooth="yes" />
      <point x="88" y="512" type="line" />
      <point x="35" y="512" type="line" />
      <point x="35" y="426" type="line" />
      <point x="88" y="426" type="line" />
    </contour>
  </outline>
</glyph>
<glyph name="g" format="2">
  <advance width="506" />
  <unicode hex="0067" />
  <outline>
    <contour>
      <point x="245" y="-162" type="curve" smooth="yes" />
      <point x="376" y="-162" />
      <point x="453" y="-84" />
      <point x="453" y="38" type="curve" smooth="yes" />
      <point x="453" y="512" type="line" />
      <point x="332" y="512" type="line" />
      <point x="332" y="460" type="line" />
      <point x="304" y="498" />
      <point x="264" y="518" />
      <point x="213" y="518" type="curve" smooth="yes" />
      <point x="113" y="518" />
      <point x="44" y="449" />
      <point x="44" y="307" type="curve" smooth="yes" />
      <point x="44" y="251" type="line" smooth="yes" />
      <point x="44" y="109" />
      <point x="115" y="39" />
      <point x="214" y="39" type="curve" smooth="yes" />
      <point x="265" y="39" />
      <point x="306" y="57" />
      <point x="334" y="92" type="curve" />
      <point x="334" y="30" type="line" smooth="yes" />
      <point x="334" y="-34" />
      <point x="306" y="-65" />
      <point x="250" y="-65" type="curve" smooth="yes" />
      <point x="204" y="-65" />
      <point x="174" y="-43" />
      <point x="168" y="-13" type="curve" />
      <point x="51" y="-13" type="line" />
      <point x="57" y="-105" />
      <point x="126" y="-162" />
    </contour>
    <contour>
      <point x="166" y="255" type="curve" smooth="yes" />
      <point x="166" y="302" type="line" smooth="yes" />
      <point x="166" y="373" />
      <point x="193" y="410" />
      <point x="248" y="410" type="curve" smooth="yes" />
      <point x="300" y="410" />
      <point x="332" y="371" />
      <point x="332" y="302" type="curve" smooth="yes" />
      <point x="332" y="255" type="line" smooth="yes" />
      <point x="332" y="186" />
      <point x="301" y="148" />
      <point x="245" y="148" type="curve" smooth="yes" />
      <point x="192" y="148" />
      <point x="166" y="184" />
    </contour>
  </outline>
</glyph>
<glyph name="h" format="2">
  <advance width="542" />
  <unicode hex="0068" />
  <outline>
    <contour>
      <point x="63" y="0" type="line" />
      <point x="185" y="0" type="line" />
      <point x="185" y="311" type="line" smooth="yes" />
      <point x="185" y="375" />
      <point x="222" y="410" />
      <point x="275" y="410" type="curve" smooth="yes" />
      <point x="328" y="410" />
      <point x="361" y="377" />
      <point x="361" y="313" type="curve" smooth="yes" />
      <point x="361" y="0" type="line" />
      <point x="483" y="0" type="line" />
      <point x="483" y="330" type="line" smooth="yes" />
      <point x="483" y="447" />
      <point x="421" y="518" />
      <point x="312" y="518" type="curve" smooth="yes" />
      <point x="262" y="518" />
      <point x="218" y="500" />
      <point x="185" y="464" type="curve" />
      <point x="185" y="680" type="line" />
      <point x="63" y="680" type="line" />
    </contour>
  </outline>
</glyph>
<glyph name="i" format="2">
  <advance width="237" />
  <unicode hex="0069" />
  <anchor x="118" y="512" name="top" />
  <outline>
    <contour>
      <point x="58" y="0" type="line" />
      <point x="179" y="0" type="line" />
      <point x="179" y="512" type="line" />
      <point x="58" y="512" type="line" />
    </contour>
    <contour>
      <point x="56" y="582" type="line" />
      <point x="180" y="582" type="line" />
      <point x="180" y="680" type="line" />
      <point x="56" y="680" type="line" />
    </contour>
  </outline>
</glyph>
<glyph name="j" format="2">
  <advance width="261" />
  <unicode hex="006A" />
  <outline>
    <contour>
      <point x="-21" y="-154" type="line" />
      <point x="38" y="-154" type="line" smooth="yes" />
      <point x="142" y="-154" />
      <point x="198" y="-99" />
      <point x="198" y="5" type="curve" smooth="yes" />
      <point x="198" y="512" type="line" />
      <point x="77" y="512" type="line" />
      <point x="77" y="13" type="line" smooth="yes" />
      <point x="77" y="-32" />
      <point x="61" y="-48" />
      <point x="22" y="-48" type="curve" smooth="yes" />
      <point x="-21" y="-48" type="line" />
    </contour>
    <contour>
      <point x="75" y="583" type="line" />
      <point x="198" y="583" type="line" />
      <point x="198" y="681" type="line" />
      <point x="75" y="681" type="line" />
    </contour>
  </outline>
</glyph>
<glyph name="k" format="2">
  <advance width="540" />
  <unicode hex="006B" />
  <outline>
    <contour>
      <point x="63" y="0" type="line" />
      <point x="185" y="0" type="line" />
      <point x="185" y="154" type="line" />
      <point x="245" y="218" type="line" />
      <point x="375" y="0" type="line" />
      <point x="525" y="0" type="line" />
      <point x="327" y="310" type="line" />
      <point x="511" y="512" type="line" />
      <point x="362" y="512" type="line" />
      <point x="185" y="298" type="line" />
      <point x="185" y="680" type="line" />
      <point x="63" y="680" type="line" />
    </contour>
  </outline>
</glyph>
<glyph name="l" format="2">
  <advance width="282" />
  <unicode hex="006C" />
  <outline>
    <contour>
      <point x="209" y="0" type="curve" smooth="yes" />
      <point x="265" y="0" type="line" />
      <point x="265" y="106" type="line" />
      <point x="223" y="106" type="line" smooth="yes" />
      <point x="189" y="106" />
      <point x="175" y="121" />
      <point x="175" y="164" type="curve" smooth="yes" />
      <point x="175" y="680" type="line" />
      <point x="53" y="680" type="line" />
      <point x="53" y="156" type="line" smooth="yes" />
      <point x="53" y="56" />
      <point x="111" y="0" />
    </contour>
  </outline>
</glyph>
<glyph name="m" format="2">
  <advance width="796" />
  <unicode hex="006D" />
  <outline>
    <contour>
      <point x="53" y="0" type="line" />
      <point x="175" y="0" type="line" />
      <point x="175" y="319" type="line" smooth="yes" />
      <point x="175" y="392" />
      <point x="226" y="410" />
      <point x="257" y="410" type="curve" smooth="yes" />
      <point x="331" y="410" />
      <point x="337" y="341" />
      <point x="337" y="319" type="curve" smooth="yes" />
      <point x="337" y="0" type="line" />
      <point x="459" y="0" type="line" />
      <point x="459" y="322" type="line" smooth="yes" />
      <point x="459" y="362" />
      <point x="479" y="410" />
      <point x="541" y="410" type="curve" smooth="yes" />
      <point x="615" y="410" />
      <point x="620" y="341" />
      <point x="620" y="319" type="curve" smooth="yes" />
      <point x="620" y="0" type="line" />
      <point x="743" y="0" type="line" />
      <point x="743" y="334" type="line" smooth="yes" />
      <point x="743" y="508" />
      <point x="604" y="518" />
      <point x="569" y="518" type="curve" smooth="yes" />
      <point x="513" y="518" />
      <point x="464" y="496" />
      <point x="424" y="454" type="curve" />
      <point x="394" y="496" />
      <point x="350" y="518" />
      <point x="293" y="518" type="curve" smooth="yes" />
      <point x="227" y="518" />
      <point x="184" y="478" />
      <point x="172" y="466" type="curve" />
      <point x="172" y="512" type="line" />
      <point x="53" y="512" type="line" />
    </contour>
  </outline>
</glyph>
<glyph name="n" format="2">
  <advance width="512" />
  <unicode hex="006E" />
  <anchor x="256" y="512" name="top" />
  <outline>
    <contour>
      <point x="53" y="0" type="line" />
      <point x="175" y="0" type="line" />
      <point x="175" y="319" type="line" smooth="yes" />
      <point x="175" y="377" />
      <point x="209" y="410" />
      <point x="257" y="410" type="curve" smooth="yes" />
      <point x="305" y="410" />
      <point x="337" y="377" />
      <point x="337" y="319" type="curve" smooth="yes" />
      <point x="337" y="0" type="line" />
      <point x="459" y="0" type="line" />
      <point x="459" y="334" type="line" smooth="yes" />
      <point x="459" y="447" />
      <point x="399" y="518" />
      <point x="293" y="518" type="curve" smooth="yes" />
      <point x="247" y="518" />
      <point x="203" y="500" />
      <point x="172" y="466" type="curve" />
      <point x="172" y="512" type="line" />
      <point x="53" y="512" type="line" />
    </contour>
  </outline>
</glyph>
<glyph name="o" format="2">
  <advance width="517" />
  <unicode hex="006F" />
  <anchor x="252" y="512" name="top" />
  <outline>
    <contour>
      <point x="260" y="-7" type="curve" smooth="yes" />
      <point x="391" y="-7" />
      <point x="472" y="65" />
      <point x="472" y="214" type="curve" smooth="yes" />
      <point x="472" y="299" type="line" smooth="yes" />
      <point x="472" y="447" />
      <point x="391" y="519" />
      <point x="260" y="519" type="curve" smooth="yes" />
      <point x="126" y="519" />
      <point x="44" y="447" />
      <point x="44" y="299" type="curve" smooth="yes" />
      <point x="44" y="214" type="line" smooth="yes" />
      <point x="44" y="65" />
      <point x="126" y="-7" />
    </contour>
    <contour>
      <point x="165" y="215" type="curve" smooth="yes" />
      <point x="165" y="297" type="line" smooth="yes" />
      <point x="165" y="372" />
      <point x="197" y="411" />
      <point x="260" y="411" type="curve" smooth="yes" />
      <point x="320" y="411" />
      <point x="351" y="373" />
      <point x="351" y="297" type="curve" smooth="yes" />
      <point x="351" y="215" type="line" smooth="yes" />
      <point x="351" y="139" />
      <point x="321" y="102" />
      <point x="260" y="101" type="curve" smooth="yes" />
      <point x="197" y="102" />
      <point x="165" y="139" />
    </contour>
  </outline>
</glyph>
<glyph name="p" format="2">
  <advance width="507" />
  <unicode hex="0070" />
  <outline>
    <contour>
      <point x="53" y="-154" type="line" />
      <point x="175" y="-154" type="line" />
      <point x="175" y="46" type="line" />
      <point x="203" y="12" />
      <point x="242" y="-6" />
      <point x="293" y="-6" type="curve" smooth="yes" />
      <point x="391" y="-6" />
      <point x="463" y="63" />
      <point x="463" y="206" type="curve" smooth="yes" />
      <point x="463" y="307" type="line" smooth="yes" />
      <point x="463" y="449" />
      <point x="391" y="518" />
      <point x="290" y="518" type="curve" smooth="yes" />
      <point x="241" y="518" />
      <point x="202" y="498" />
      <point x="172" y="460" type="curve" />
      <point x="172" y="512" type="line" />
      <point x="53" y="512" type="line" />
    </contour>
    <contour>
      <point x="174" y="210" type="curve" smooth="yes" />
      <point x="174" y="302" type="line" smooth="yes" />
      <point x="174" y="371" />
      <point x="207" y="410" />
      <point x="259" y="410" type="curve" smooth="yes" />
      <point x="309" y="410" />
      <point x="341" y="379" />
      <point x="341" y="302" type="curve" smooth="yes" />
      <point x="341" y="210" type="line" smooth="yes" />
      <point x="341" y="139" />
      <point x="315" y="102" />
      <point x="262" y="102" type="curve" smooth="yes" />
      <point x="206" y="102" />
      <point x="174" y="140" />
    </contour>
  </outline>
</glyph>
<glyph name="q" format="2">
  <advance width="526" />
  <unicode hex="0071" />
  <outline>
    <contour>
      <point x="342" y="-154" type="line" />
      <point x="463" y="-154" type="line" />
      <point x="463" y="512" type="line" />
      <point x="345" y="512" type="line" />
      <point x="345" y="459" type="line" />
      <point x="313" y="499" />
      <point x="271" y="519" />
      <point x="219" y="519" type="curve" smooth="yes" />
      <point x="112" y="519" />
      <point x="39" y="445" />
      <point x="39" y="302" type="curve" smooth="yes" />
      <point x="39" y="211" type="line" smooth="yes" />
      <point x="39" y="66" />
      <point x="113" y="-7" />
      <point x="217" y="-7" type="curve" smooth="yes" />
      <point x="272" y="-7" />
      <point x="313" y="12" />
      <point x="342" y="49" type="curve" />
    </contour>
    <contour>
      <point x="161" y="215" type="curve" smooth="yes" />
      <point x="161" y="296" type="line" smooth="yes" />
      <point x="161" y="371" />
      <point x="191" y="411" />
      <point x="251" y="411" type="curve" smooth="yes" />
      <point x="308" y="411" />
      <point x="342" y="370" />
      <point x="342" y="298" type="curve" smooth="yes" />
      <point x="342" y="214" type="line" smooth="yes" />
      <point x="342" y="142" />
      <point x="309" y="101" />
      <point x="248" y="101" type="curve" smooth="yes" />
      <point x="191" y="101" />
      <point x="161" y="139" />
    </contour>
  </outline>
</glyph>
<glyph name="r" format="2">
  <advance width="352" />
  <unicode hex="0072" />
  <outline>
    <contour>
      <point x="53" y="0" type="line" />
      <point x="175" y="0" type="line" />
      <point x="175" y="307" type="line" smooth="yes" />
      <point x="175" y="376" />
      <point x="215" y="416" />
      <point x="274" y="416" type="curve" smooth="yes" />
      <point x="291" y="416" />
      <point x="312" y="413" />
      <point x="335" y="405" type="curve" />
      <point x="335" y="519" type="line" />
      <point x="322" y="522" />
      <point x="309" y="523" />
      <point x="293" y="523" type="curve" smooth="yes" />
      <point x="241" y="523" />
      <point x="197" y="503" />
      <point x="172" y="459" type="curve" />
      <point x="172" y="512" type="line" />
      <point x="53" y="512" type="line" />
    </contour>
  </outline>
</glyph>
<glyph name="s" format="2">
  <advance width="465" />
  <unicode hex="0073" />
  <anchor x="227" y="512" name="top" />
  <outline>
    <contour>
      <point x="223" y="-6" type="curve" smooth="yes" />
      <point x="344" y="-6" />
      <point x="429" y="53" />
      <point x="429" y="159" type="curve" smooth="yes" />
      <point x="429" y="243" />
      <point x="377" y="290" />
      <point x="275" y="306" type="curve" smooth="yes" />
      <point x="214" y="316" type="line" smooth="yes" />
      <point x="168" y="321" />
      <point x="150" y="338" />
      <point x="150" y="368" type="curve" smooth="yes" />
      <point x="150" y="401" />
      <point x="177" y="422" />
      <point x="227" y="422" type="curve" smooth="yes" />
      <point x="277" y="422" />
      <point x="307" y="402" />
      <point x="307" y="367" type="curve" smooth="yes" />
      <point x="307" y="364" type="line" />
      <point x="419" y="364" type="line" />
      <point x="419" y="369" type="line" smooth="yes" />
      <point x="419" y="453" />
      <point x="342" y="518" />
      <point x="227" y="518" type="curve" smooth="yes" />
      <point x="115" y="518" />
      <point x="35" y="458" />
      <point x="35" y="360" type="curve" smooth="yes" />
      <point x="35" y="275" />
      <point x="83" y="231" />
      <point x="185" y="214" type="curve" smooth="yes" />
      <point x="239" y="205" type="line" smooth="yes" />
      <point x="291" y="197" />
      <point x="312" y="181" />
      <point x="312" y="150" type="curve" smooth="yes" />
      <point x="312" y="112" />
      <point x="281" y="92" />
      <point x="227" y="92" type="curve" smooth="yes" />
      <point x="177" y="92" />
      <point x="143" y="114" />
      <point x="143" y="152" type="curve" smooth="yes" />
      <point x="143" y="156" type="line" />
      <point x="29" y="156" type="line" />
      <point x="29" y="152" type="line" smooth="yes" />
      <point x="29" y="56" />
      <point x="106" y="-6" />
    </contour>
  </outline>
</glyph>
<glyph name="t" format="2">
  <advance width="366" />
  <unicode hex="0074" />
  <outline>
    <contour>
      <point x="255" y="0" type="curve" smooth="yes" />
      <point x="314" y="0" type="line" />
      <point x="314" y="104" type="line" />
      <point x="275" y="104" type="line" smooth="yes" />
      <point x="240" y="104" />
      <point x="222" y="121" />
      <point x="222" y="158" type="curve" smooth="yes" />
      <point x="222" y="426" type="line" />
      <point x="325" y="426" type="line" />
      <point x="325" y="512" type="line" />
      <point x="222" y="512" type="line" />
      <point x="222" y="655" type="line" />
      <point x="101" y="613" type="line" />
      <point x="101" y="512" type="line" />
      <point x="27" y="512" type="line" />
      <point x="27" y="426" type="line" />
      <point x="101" y="426" type="line" />
      <point x="101" y="150" type="line" smooth="yes" />
      <point x="101" y="57" />
      <point x="161" y="0" />
    </contour>
  </outline>
</glyph>
<glyph name="u" format="2">
  <advance width="527" />
  <unicode hex="0075" />
  <anchor x="261" y="512" name="top" />
  <outline>
    <contour>
      <point x="261" y="-6" type="curve" smooth="yes" />
      <point x="397" y="-6" />
      <point x="464" y="64" />
      <point x="464" y="207" type="curve" smooth="yes" />
      <point x="464" y="512" type="line" />
      <point x="342" y="512" type="line" />
      <point x="342" y="213" type="line" smooth="yes" />
      <point x="342" y="136" />
      <point x="324" y="102" />
      <point x="261" y="102" type="curve" smooth="yes" />
      <point x="197" y="102" />
      <point x="180" y="139" />
      <point x="180" y="213" type="curve" smooth="yes" />
      <point x="180" y="512" type="line" />
      <point x="58" y="512" type="line" />
      <point x="58" y="207" type="line" smooth="yes" />
      <point x="58" y="65" />
      <point x="125" y="-6" />
    </contour>
  </outline>
</glyph>
<glyph name="v" format="2">
  <advance width="484" />
  <unicode hex="0076" />
  <outline>
    <contour>
      <point x="192" y="0" type="line" />
      <point x="292" y="0" type="line" />
      <point x="470" y="512" type="line" />
      <point x="341" y="512" type="line" />
      <point x="243" y="188" type="line" />
      <point x="143" y="512" type="line" />
      <point x="14" y="512" type="line" />
    </contour>
  </outline>
</glyph>
<glyph name="w" format="2">
  <advance width="741" />
  <unicode hex="0077" />
  <outline>
    <contour>
      <point x="167" y="0" type="line" />
      <point x="270" y="0" type="line" />
      <point x="370" y="332" type="line" />
      <point x="470" y="0" type="line" />
      <point x="574" y="0" type="line" />
      <point x="724" y="512" type="line" />
      <point x="594" y="512" type="line" />
      <point x="514" y="188" type="line" />
      <point x="416" y="512" type="line" />
      <point x="324" y="512" type="line" />
      <point x="225" y="188" type="line" />
      <point x="146" y="512" type="line" />
      <point x="17" y="512" type="line" />
    </contour>
  </outline>
</glyph>
<glyph name="x" format="2">
  <advance width="482" />
  <unicode hex="0078" />
  <outline>
    <contour>
      <point x="16" y="0" type="line" />
      <point x="146" y="0" type="line" />
      <point x="236" y="164" type="line" />
      <point x="337" y="0" type="line" />
      <point x="466" y="0" type="line" />
      <point x="303" y="268" type="line" />
      <point x="456" y="512" type="line" />
      <point x="326" y="512" type="line" />
      <point x="246" y="364" type="line" />
      <point x="155" y="512" type="line" />
      <point x="24" y="512" type="line" />
      <point x="176" y="264" type="line" />
    </contour>
  </outline>
</glyph>
<glyph name="y" format="2">
  <advance width="497" />
  <unicode hex="0079" />
  <anchor x="241" y="512" name="top" />
  <outline>
    <contour>
      <point x="81" y="-152" type="line" />
      <point x="124" y="-152" type="line" smooth="yes" />
      <point x="208" y="-152" />
      <point x="257" y="-119" />
      <point x="285" y="-44" type="curve" smooth="yes" />
      <point x="485" y="512" type="line" />
      <point x="359" y="512" type="line" />
      <point x="251" y="185" type="line" />
      <point x="142" y="512" type="line" />
      <point x="12" y="512" type="line" />
      <point x="194" y="13" type="line" />
      <point x="192" y="6" type="line" smooth="yes" />
      <point x="181" y="-33" />
      <point x="164" y="-42" />
      <point x="123" y="-42" type="curve" smooth="yes" />
      <point x="81" y="-42" type="line" />
    </contour>
  </outline>
</glyph>
<glyph name="z" format="2">
  <advance width="447" />
  <unicode hex="007A" />
  <anchor x="223" y="512" name="top" />
  <outline>
    <contour>
      <point x="44" y="0" type="line" />
      <point x="404" y="0" type="line" />
      <point x="404" y="102" type="line" />
      <point x="177" y="102" type="line" />
      <point x="404" y="410" type="line" />
      <point x="404" y="512" type="line" />
      <point x="44" y="512" type="line" />
      <point x="44" y="410" type="line" />
      <point x="271" y="410" type="line" />
      <point x="44" y="102" type="line" />
    </contour>
  </outline>
</glyph>
<glyph name="braceleft" format="2">
  <advance width="354" />
  <unicode hex="007B" />
  <outline>
    <contour>
      <point x="241" y="-83" type="curve" smooth="yes" />
      <point x="311" y="-83" type="line" />
      <point x="311" y="15" type="line" />
      <point x="276" y="15" type="line" smooth="yes" />
      <point x="248" y="15" />
      <point x="235" y="30" />
      <point x="235" y="59" type="curve" smooth="yes" />
      <point x="235" y="200" type="line" smooth="yes" />
      <point x="235" y="275" />
      <point x="216" y="306" />
      <point x="164" y="325" type="curve" />
      <point x="216" y="342" />
      <point x="235" y="375" />
      <point x="235" y="450" type="curve" smooth="yes" />
      <point x="235" y="587" type="line" smooth="yes" />
      <point x="235" y="616" />
      <point x="248" y="630" />
      <point x="276" y="630" type="curve" smooth="yes" />
      <point x="311" y="630" type="line" />
      <point x="311" y="729" type="line" />
      <point x="241" y="729" type="line" smooth="yes" />
      <point x="163" y="729" />
      <point x="119" y="686" />
      <point x="119" y="609" type="curve" smooth="yes" />
      <point x="119" y="456" type="line" smooth="yes" />
      <point x="119" y="400" />
      <point x="100" y="377" />
      <point x="44" y="377" type="curve" />
      <point x="44" y="273" type="line" />
      <point x="100" y="273" />
      <point x="119" y="250" />
      <point x="119" y="194" type="curve" smooth="yes" />
      <point x="119" y="38" type="line" smooth="yes" />
      <point x="119" y="-40" />
      <point x="163" y="-83" />
    </contour>
  </outline>
</glyph>
<glyph name="bar" format="2">
  <advance width="298" />
  <unicode hex="007C" />
  <outline>
    <contour>
      <point x="92" y="-83" type="line" />
      <point x="206" y="-83" type="line" />
      <point x="206" y="729" type="line" />
      <point x="92" y="729" type="line" />
    </contour>
  </outline>
</glyph>
<glyph name="braceright" format="2">
  <advance width="354" />
  <unicode hex="007D" />
  <outline>
    <contour>
      <point x="44" y="-83" type="line" />
      <point x="114" y="-83" type="line" smooth="yes" />
      <point x="193" y="-83" />
      <point x="236" y="-40" />
      <point x="236" y="38" type="curve" smooth="yes" />
      <point x="236" y="194" type="line" smooth="yes" />
      <point x="236" y="250" />
      <point x="257" y="273" />
      <point x="311" y="273" type="curve" />
      <point x="311" y="377" type="line" />
      <point x="257" y="377" />
      <point x="236" y="400" />
      <point x="236" y="456" type="curve" smooth="yes" />
      <point x="236" y="609" type="line" smooth="yes" />
      <point x="236" y="686" />
      <point x="193" y="729" />
      <point x="114" y="729" type="curve" smooth="yes" />
      <point x="44" y="729" type="line" />
      <point x="44" y="630" type="line" />
      <point x="79" y="630" type="line" smooth="yes" />
      <point x="107" y="630" />
      <point x="121" y="616" />
      <point x="121" y="587" type="curve" smooth="yes" />
      <point x="121" y="450" type="line" smooth="yes" />
      <point x="121" y="375" />
      <point x="139" y="342" />
      <point x="191" y="325" type="curve" />
      <point x="139" y="306" />
      <point x="121" y="275" />
      <point x="121" y="200" type="curve" smooth="yes" />
      <point x="121" y="59" type="line" smooth="yes" />
      <point x="121" y="30" />
      <point x="107" y="15" />
      <point x="79" y="15" type="curve" smooth="yes" />
      <point x="44" y="15" type="line" />
    </contour>
  </outline>
</glyph>
<glyph name="asciitilde" format="2">
  <advance width="520" />
  <unicode hex="007E" />
  <outline>
    <contour>
      <point x="117" y="193" type="line" />
      <point x="139" y="232" />
      <point x="157" y="248" />
      <point x="184" y="248" type="curve" smooth="yes" />
      <point x="203" y="248" />
      <point x="216" y="241" />
      <point x="247" y="224" type="curve" smooth="yes" />
      <point x="282" y="203" />
      <point x="307" y="192" />
      <point x="341" y="192" type="curve" smooth="yes" />
      <point x="401" y="192" />
      <point x="453" y="231" />
      <point x="484" y="300" type="curve" />
      <point x="405" y="348" type="line" />
      <point x="386" y="310" />
      <point x="366" y="293" />
      <point x="338" y="293" type="curve" smooth="yes" />
      <point x="318" y="293" />
      <point x="303" y="302" />
      <point x="274" y="317" type="curve" smooth="yes" />
      <point x="238" y="339" />
      <point x="214" y="348" />
      <point x="179" y="348" type="curve" smooth="yes" />
      <point x="119" y="348" />
      <point x="69" y="311" />
      <point x="38" y="241" type="curve" />
    </contour>
  </outline>
</glyph>
<glyph name="cent" format="2">
  <advance width="542" />
  <unicode hex="00A2" />
  <outline>
    <contour>
      <point x="245" y="-98" type="line" />
      <point x="307" y="-98" type="line" />
      <point x="307" y="-3" type="line" />
      <point x="407" y="13" />
      <point x="467" y="77" />
      <point x="467" y="177" type="curve" smooth="yes" />
      <point x="467" y="183" type="line" />
      <point x="350" y="183" type="line" />
      <point x="350" y="178" type="line" smooth="yes" />
      <point x="350" y="130" />
      <point x="317" y="101" />
      <point x="263" y="101" type="curve" smooth="yes" />
      <point x="200" y="101" />
      <point x="165" y="135" />
      <point x="165" y="215" type="curve" smooth="yes" />
      <point x="165" y="297" type="line" smooth="yes" />
      <point x="165" y="373" />
      <point x="198" y="411" />
      <point x="262" y="411" type="curve" smooth="yes" />
      <point x="317" y="411" />
      <point x="351" y="381" />
      <point x="351" y="331" type="curve" smooth="yes" />
      <point x="351" y="326" type="line" />
      <point x="467" y="326" type="line" />
      <point x="467" y="335" type="line" smooth="yes" />
      <point x="467" y="436" />
      <point x="410" y="500" />
      <point x="307" y="516" type="curve" />
      <point x="307" y="620" type="line" />
      <point x="245" y="620" type="line" />
      <point x="245" y="519" type="line" />
      <point x="120" y="514" />
      <point x="44" y="442" />
      <point x="44" y="299" type="curve" smooth="yes" />
      <point x="44" y="214" type="line" smooth="yes" />
      <point x="44" y="70" />
      <point x="120" y="-2" />
      <point x="245" y="-7" type="curve" />
    </contour>
  </outline>
</glyph>
<glyph name="sterling" format="2">
  <advance width="473" />
  <unicode hex="00A3" />
  <outline>
    <contour>
      <point x="43" y="0" type="line" />
      <point x="450" y="0" type="line" />
      <point x="450" y="112" type="line" />
      <point x="186" y="112" type="line" />
      <point x="207" y="134" />
      <point x="217" y="166" />
      <point x="217" y="211" type="curve" smooth="yes" />
      <point x="217" y="272" type="line" />
      <point x="354" y="272" type="line" />
      <point x="354" y="384" type="line" />
      <point x="217" y="384" type="line" />
      <point x="217" y="517" type="line" smooth="yes" />
      <point x="217" y="557" />
      <point x="238" y="580" />
      <point x="275" y="580" type="curve" smooth="yes" />
      <point x="310" y="580" />
      <point x="330" y="561" />
      <point x="330" y="525" type="curve" />
      <point x="450" y="525" type="line" />
      <point x="450" y="631" />
      <point x="382" y="690" />
      <point x="273" y="690" type="curve" smooth="yes" />
      <point x="155" y="690" />
      <point x="88" y="619" />
      <point x="88" y="501" type="curve" smooth="yes" />
      <point x="88" y="384" type="line" />
      <point x="26" y="384" type="line" />
      <point x="26" y="272" type="line" />
      <point x="88" y="272" type="line" />
      <point x="88" y="198" type="line" smooth="yes" />
      <point x="88" y="145" />
      <point x="76" y="121" />
      <point x="43" y="107" type="curve" />
    </contour>
  </outline>
</glyph>
<glyph name="yen" format="2">
  <advance width="506" />
  <unicode hex="00A5" />
  <outline>
    <contour>
      <point x="189" y="0" type="line" />
      <point x="317" y="0" type="line" />
      <point x="317" y="115" type="line" />
      <point x="452" y="115" type="line" />
      <point x="452" y="202" type="line" />
      <point x="317" y="202" type="line" />
      <point x="317" y="256" type="line" />
      <point x="452" y="256" type="line" />
      <point x="452" y="342" type="line" />
      <point x="339" y="342" type="line" />
      <point x="499" y="680" type="line" />
      <point x="366" y="680" type="line" />
      <point x="256" y="407" type="line" />
      <point x="141" y="680" type="line" />
      <point x="7" y="680" type="line" />
      <point x="168" y="342" type="line" />
      <point x="55" y="342" type="line" />
      <point x="55" y="256" type="line" />
      <point x="189" y="256" type="line" />
      <point x="189" y="202" type="line" />
      <point x="55" y="202" type="line" />
      <point x="55" y="115" type="line" />
      <point x="189" y="115" type="line" />
    </contour>
  </outline>
</glyph>
<glyph name="brokenbar" format="2">
  <advance width="298" />
  <unicode hex="00A6" />
  <outline>
    <contour>
      <point x="92" y="382" type="line" />
      <point x="206" y="382" type="line" />
      <point x="206" y="729" type="line" />
      <point x="92" y="729" type="line" />
    </contour>
    <contour>
      <point x="92" y="-83" type="line" />
      <point x="206" y="-83" type="line" />
      <point x="206" y="265" type="line" />
      <point x="92" y="265" type="line" />
    </contour>
  </outline>
</glyph>
<glyph name="section" format="2">
  <advance width="513" />
  <unicode hex="00A7" />
  <outline>
    <contour>
      <point x="253" y="-165" type="curve" smooth="yes" />
      <point x="364" y="-165" />
      <point x="435" y="-101" />
      <point x="435" y="-9" type="curve" smooth="yes" />
      <point x="435" y="54" />
      <point x="417" y="93" />
      <point x="366" y="122" type="curve" />
      <point x="419" y="147" />
      <point x="455" y="205" />
      <point x="455" y="274" type="curve" smooth="yes" />
      <point x="455" y="371" />
      <point x="407" y="432" />
      <point x="306" y="459" type="curve" smooth="yes" />
      <point x="224" y="482" />
      <point x="198" y="500" />
      <point x="198" y="546" type="curve" smooth="yes" />
      <point x="198" y="581" />
      <point x="221" y="605" />
      <point x="261" y="605" type="curve" smooth="yes" />
      <point x="304" y="605" />
      <point x="327" y="582" />
      <point x="327" y="537" type="curve" />
      <point x="437" y="537" type="line" />
      <point x="437" y="641" />
      <point x="375" y="705" />
      <point x="259" y="705" type="curve" smooth="yes" />
      <point x="152" y="705" />
      <point x="81" y="637" />
      <point x="81" y="547" type="curve" smooth="yes" />
      <point x="81" y="492" />
      <point x="100" y="449" />
      <point x="146" y="422" type="curve" />
      <point x="90" y="393" />
      <point x="58" y="339" />
      <point x="58" y="271" type="curve" smooth="yes" />
      <point x="58" y="173" />
      <point x="107" y="112" />
      <point x="207" y="85" type="curve" smooth="yes" />
      <point x="290" y="62" />
      <point x="318" y="41" />
      <point x="318" y="-7" type="curve" smooth="yes" />
      <point x="318" y="-41" />
      <point x="294" y="-65" />
      <point x="252" y="-65" type="curve" smooth="yes" />
      <point x="207" y="-65" />
      <point x="184" y="-42" />
      <point x="184" y="4" type="curve" />
      <point x="72" y="4" type="line" />
      <point x="72" y="-104" />
      <point x="137" y="-165" />
    </contour>
    <contour>
      <point x="257" y="186" type="curve" smooth="yes" />
      <point x="206" y="186" />
      <point x="175" y="216" />
      <point x="175" y="272" type="curve" smooth="yes" />
      <point x="175" y="328" />
      <point x="206" y="359" />
      <point x="257" y="359" type="curve" smooth="yes" />
      <point x="308" y="359" />
      <point x="337" y="326" />
      <point x="337" y="272" type="curve" smooth="yes" />
      <point x="337" y="217" />
      <point x="308" y="186" />
    </contour>
  </outline>
</glyph>
<glyph name="dieresis" format="2">
  <advance width="492" />
  <unicode hex="00A8" />
  <outline>
    <contour>
      <point x="94" y="578" type="line" />
      <point x="200" y="578" type="line" />
      <point x="200" y="693" type="line" />
      <point x="94" y="693" type="line" />
    </contour>
    <contour>
      <point x="291" y="578" type="line" />
      <point x="397" y="578" type="line" />
      <point x="397" y="693" type="line" />
      <point x="291" y="693" type="line" />
    </contour>
  </outline>
</glyph>
<glyph name="copyright" format="2">
  <advance width="814" />
  <unicode hex="00A9" />
  <outline>
    <contour>
      <point x="401" y="146" type="curve" smooth="yes" />
      <point x="493" y="146" />
      <point x="551" y="197" />
      <point x="551" y="279" type="curve" smooth="yes" />
      <point x="551" y="284" type="line" />
      <point x="467" y="284" type="line" />
      <point x="467" y="280" type="line" smooth="yes" />
      <point x="467" y="245" />
      <point x="444" y="224" />
      <point x="405" y="224" type="curve" smooth="yes" />
      <point x="361" y="224" />
      <point x="337" y="246" />
      <point x="337" y="306" type="curve" smooth="yes" />
      <point x="337" y="367" type="line" smooth="yes" />
      <point x="337" y="422" />
      <point x="359" y="449" />
      <point x="404" y="449" type="curve" smooth="yes" />
      <point x="442" y="449" />
      <point x="467" y="427" />
      <point x="467" y="392" type="curve" smooth="yes" />
      <point x="467" y="388" type="line" />
      <point x="551" y="388" type="line" />
      <point x="551" y="394" type="line" smooth="yes" />
      <point x="551" y="477" />
      <point x="495" y="528" />
      <point x="401" y="528" type="curve" smooth="yes" />
      <point x="308" y="528" />
      <point x="249" y="475" />
      <point x="249" y="368" type="curve" smooth="yes" />
      <point x="249" y="305" type="line" smooth="yes" />
      <point x="249" y="197" />
      <point x="308" y="146" />
    </contour>
    <contour>
      <point x="400" y="-9" type="curve" smooth="yes" />
      <point x="602" y="-9" />
      <point x="738" y="132" />
      <point x="738" y="337" type="curve" smooth="yes" />
      <point x="738" y="542" />
      <point x="602" y="683" />
      <point x="400" y="683" type="curve" smooth="yes" />
      <point x="197" y="683" />
      <point x="63" y="543" />
      <point x="63" y="337" type="curve" smooth="yes" />
      <point x="63" y="132" />
      <point x="197" y="-9" />
    </contour>
    <contour>
      <point x="400" y="67" type="curve" smooth="yes" />
      <point x="240" y="67" />
      <point x="143" y="169" />
      <point x="143" y="337" type="curve" smooth="yes" />
      <point x="143" y="504" />
      <point x="240" y="608" />
      <point x="400" y="608" type="curve" smooth="yes" />
      <point x="560" y="608" />
      <point x="658" y="504" />
      <point x="658" y="337" type="curve" smooth="yes" />
      <point x="658" y="169" />
      <point x="560" y="67" />
    </contour>
  </outline>
</glyph>
<glyph name="ordfeminine" format="2">
  <advance width="354" />
  <unicode hex="00AA" />
  <outline>
    <contour>
      <point x="142" y="419" type="curve" smooth="yes" />
      <point x="176" y="419" />
      <point x="196" y="428" />
      <point x="220" y="449" type="curve" />
      <point x="220" y="423" type="line" />
      <point x="305" y="423" type="line" />
      <point x="305" y="621" type="line" smooth="yes" />
      <point x="305" y="698" />
      <point x="258" y="737" />
      <point x="169" y="737" type="curve" smooth="yes" />
      <point x="91" y="737" />
      <point x="44" y="700" />
      <point x="44" y="640" type="curve" smooth="yes" />
      <point x="44" y="638" type="line" />
      <point x="126" y="638" type="line" />
      <point x="126" y="640" type="line" smooth="yes" />
      <point x="126" y="658" />
      <point x="141" y="670" />
      <point x="168" y="670" type="curve" smooth="yes" />
      <point x="201" y="670" />
      <point x="217" y="656" />
      <point x="217" y="626" type="curve" smooth="yes" />
      <point x="217" y="610" type="line" />
      <point x="151" y="610" type="line" smooth="yes" />
      <point x="78" y="610" />
      <point x="36" y="576" />
      <point x="36" y="519" type="curve" smooth="yes" />
      <point x="36" y="459" />
      <point x="76" y="419" />
    </contour>
    <contour>
      <point x="120" y="522" type="curve" smooth="yes" />
      <point x="120" y="542" />
      <point x="135" y="551" />
      <point x="164" y="551" type="curve" smooth="yes" />
      <point x="217" y="551" type="line" />
      <point x="217" y="538" type="line" smooth="yes" />
      <point x="217" y="506" />
      <point x="201" y="491" />
      <point x="164" y="491" type="curve" smooth="yes" />
      <point x="135" y="491" />
      <point x="120" y="502" />
    </contour>
  </outline>
</glyph>
<glyph name="guillemotleft" format="2">
  <advance width="517" />
  <unicode hex="00AB" />
  <outline>
    <contour>
      <point x="240" y="37" type="line" />
      <point x="240" y="165" type="line" />
      <point x="147" y="260" type="line" />
      <point x="240" y="355" type="line" />
      <point x="240" y="484" type="line" />
      <point x="17" y="260" type="line" />
    </contour>
    <contour>
      <point x="464" y="37" type="line" />
      <point x="464" y="165" type="line" />
      <point x="369" y="260" type="line" />
      <point x="464" y="355" type="line" />
      <point x="464" y="484" type="line" />
      <point x="240" y="260" type="line" />
    </contour>
  </outline>
</glyph>
<glyph name="registered" format="2">
  <advance width="487" />
  <unicode hex="00AE" />
  <outline>
    <contour>
      <point x="243" y="303" type="curve" smooth="yes" />
      <point x="350" y="303" />
      <point x="429" y="386" />
      <point x="429" y="492" type="curve" smooth="yes" />
      <point x="429" y="596" />
      <point x="350" y="681" />
      <point x="243" y="681" type="curve" smooth="yes" />
      <point x="139" y="681" />
      <point x="58" y="599" />
      <point x="58" y="492" type="curve" smooth="yes" />
      <point x="58" y="386" />
      <point x="137" y="303" />
    </contour>
    <contour>
      <point x="99" y="492" type="curve" smooth="yes" />
      <point x="99" y="581" />
      <point x="159" y="642" />
      <point x="243" y="642" type="curve" smooth="yes" />
      <point x="328" y="642" />
      <point x="387" y="581" />
      <point x="387" y="492" type="curve" smooth="yes" />
      <point x="387" y="404" />
      <point x="328" y="342" />
      <point x="243" y="342" type="curve" smooth="yes" />
      <point x="159" y="342" />
      <point x="99" y="404" />
    </contour>
    <contour>
      <point x="167" y="389" type="line" />
      <point x="218" y="389" type="line" />
      <point x="218" y="466" type="line" />
      <point x="243" y="466" type="line" />
      <point x="280" y="389" type="line" />
      <point x="335" y="389" type="line" />
      <point x="293" y="474" type="line" />
      <point x="317" y="486" />
      <point x="330" y="505" />
      <point x="330" y="533" type="curve" smooth="yes" />
      <point x="330" y="575" />
      <point x="302" y="598" />
      <point x="254" y="598" type="curve" smooth="yes" />
      <point x="167" y="598" type="line" />
    </contour>
    <contour>
      <point x="218" y="509" type="line" />
      <point x="218" y="555" type="line" />
      <point x="251" y="555" type="line" smooth="yes" />
      <point x="269" y="555" />
      <point x="279" y="547" />
      <point x="279" y="532" type="curve" smooth="yes" />
      <point x="279" y="517" />
      <point x="269" y="509" />
      <point x="251" y="509" type="curve" smooth="yes" />
    </contour>
  </outline>
</glyph>
<glyph name="macron" format="2">
  <advance width="492" />
  <unicode hex="00AF" />
  <outline>
    <contour>
      <point x="108" y="581" type="line" />
      <point x="385" y="581" type="line" />
      <point x="385" y="690" type="line" />
      <point x="108" y="690" type="line" />
    </contour>
  </outline>
</glyph>
<glyph name="degree" format="2">
  <advance width="388" />
  <unicode hex="00B0" />
  <outline>
    <contour>
      <point x="195" y="401" type="curve" smooth="yes" />
      <point x="276" y="401" />
      <point x="340" y="465" />
      <point x="340" y="545" type="curve" smooth="yes" />
      <point x="340" y="626" />
      <point x="276" y="691" />
      <point x="195" y="691" type="curve" smooth="yes" />
      <point x="114" y="691" />
      <point x="50" y="626" />
      <point x="50" y="545" type="curve" smooth="yes" />
      <point x="50" y="463" />
      <point x="113" y="401" />
    </contour>
    <contour>
      <point x="127" y="545" type="curve" smooth="yes" />
      <point x="127" y="588" />
      <point x="155" y="617" />
      <point x="195" y="617" type="curve" smooth="yes" />
      <point x="234" y="617" />
      <point x="263" y="586" />
      <point x="263" y="545" type="curve" smooth="yes" />
      <point x="263" y="505" />
      <point x="234" y="475" />
      <point x="195" y="475" type="curve" smooth="yes" />
      <point x="155" y="475" />
      <point x="127" y="503" />
    </contour>
  </outline>
</glyph>
<glyph name="plusminus" format="2">
  <advance width="520" />
  <unicode hex="00B1" />
  <outline>
    <contour>
      <point x="205" y="59" type="line" />
      <point x="317" y="59" type="line" />
      <point x="317" y="215" type="line" />
      <point x="474" y="215" type="line" />
      <point x="474" y="328" type="line" />
      <point x="317" y="328" type="line" />
      <point x="317" y="486" type="line" />
      <point x="205" y="486" type="line" />
      <point x="205" y="328" type="line" />
      <point x="47" y="328" type="line" />
      <point x="47" y="215" type="line" />
      <point x="205" y="215" type="line" />
    </contour>
    <contour>
      <point x="47" y="-96" type="line" />
      <point x="474" y="-96" type="line" />
      <point x="474" y="16" type="line" />
      <point x="47" y="16" type="line" />
    </contour>
  </outline>
</glyph>
<glyph name="mu" format="2">
  <advance width="526" />
  <unicode hex="00B5" />
  <outline>
    <contour>
      <point x="53" y="-154" type="line" />
      <point x="174" y="-154" type="line" />
      <point x="174" y="11" type="line" />
      <point x="194" y="0" />
      <point x="218" y="-6" />
      <point x="243" y="-6" type="curve" smooth="yes" />
      <point x="289" y="-5" />
      <point x="328" y="13" />
      <point x="354" y="49" type="curve" />
      <point x="354" y="0" type="line" />
      <point x="473" y="0" type="line" />
      <point x="473" y="512" type="line" />
      <point x="351" y="512" type="line" />
      <point x="351" y="201" type="line" smooth="yes" />
      <point x="351" y="138" />
      <point x="315" y="102" />
      <point x="261" y="102" type="curve" smooth="yes" />
      <point x="208" y="102" />
      <point x="175" y="138" />
      <point x="175" y="200" type="curve" smooth="yes" />
      <point x="175" y="512" type="line" />
      <point x="53" y="512" type="line" />
    </contour>
  </outline>
</glyph>
<glyph name="paragraph" format="2">
  <advance width="634" />
  <unicode hex="00B6" />
  <outline>
    <contour>
      <point x="252" y="-154" type="line" />
      <point x="361" y="-154" type="line" />
      <point x="361" y="581" type="line" />
      <point x="442" y="581" type="line" />
      <point x="442" y="-154" type="line" />
      <point x="546" y="-154" type="line" />
      <point x="546" y="680" type="line" />
      <point x="282" y="680" type="line" smooth="yes" />
      <point x="143" y="680" />
      <point x="58" y="586" />
      <point x="58" y="465" type="curve" smooth="yes" />
      <point x="58" y="346" />
      <point x="137" y="258" />
      <point x="252" y="249" type="curve" />
    </contour>
  </outline>
</glyph>
<glyph name="cedilla" format="2">
  <advance width="492" />
  <unicode hex="00B8" />
  <outline>
    <contour>
      <point x="150" y="-154" type="line" />
      <point x="264" y="-154" type="line" />
      <point x="320" y="13" type="line" />
      <point x="223" y="13" type="line" />
    </contour>
  </outline>
</glyph>
<glyph name="ordmasculine" format="2">
  <advance width="356" />
  <unicode hex="00BA" />
  <outline>
    <contour>
      <point x="178" y="419" type="curve" smooth="yes" />
      <point x="263" y="419" />
      <point x="315" y="464" />
      <point x="315" y="554" type="curve" smooth="yes" />
      <point x="315" y="604" type="line" smooth="yes" />
      <point x="315" y="693" />
      <point x="265" y="737" />
      <point x="178" y="737" type="curve" smooth="yes" />
      <point x="92" y="737" />
      <point x="41" y="693" />
      <point x="41" y="604" type="curve" smooth="yes" />
      <point x="41" y="554" type="line" smooth="yes" />
      <point x="41" y="464" />
      <point x="92" y="419" />
    </contour>
    <contour>
      <point x="129" y="554" type="curve" smooth="yes" />
      <point x="129" y="603" type="line" smooth="yes" />
      <point x="129" y="640" />
      <point x="145" y="658" />
      <point x="178" y="658" type="curve" smooth="yes" />
      <point x="210" y="658" />
      <point x="226" y="640" />
      <point x="226" y="603" type="curve" smooth="yes" />
      <point x="226" y="554" type="line" smooth="yes" />
      <point x="226" y="518" />
      <point x="210" y="498" />
      <point x="178" y="498" type="curve" smooth="yes" />
      <point x="145" y="498" />
      <point x="129" y="518" />
    </contour>
  </outline>
</glyph>
<glyph name="guillemotright" format="2">
  <advance width="517" />
  <unicode hex="00BB" />
  <outline>
    <contour>
      <point x="53" y="37" type="line" />
      <point x="277" y="260" type="line" />
      <point x="53" y="484" type="line" />
      <point x="53" y="355" type="line" />
      <point x="148" y="260" type="line" />
      <point x="53" y="165" type="line" />
    </contour>
    <contour>
      <point x="277" y="37" type="line" />
      <point x="499" y="260" type="line" />
      <point x="277" y="484" type="line" />
      <point x="277" y="355" type="line" />
      <point x="370" y="260" type="line" />
      <point x="277" y="165" type="line" />
    </contour>
  </outline>
</glyph>
<glyph name="questiondown" format="2">
  <advance width="443" />
  <unicode hex="00BF" />
  <outline>
    <contour>
      <point x="225" y="-164" type="curve" smooth="yes" />
      <point x="346" y="-164" />
      <point x="416" y="-97" />
      <point x="417" y="26" type="curve" />
      <point x="298" y="26" type="line" />
      <point x="296" y="-26" />
      <point x="278" y="-53" />
      <point x="230" y="-53" type="curve" smooth="yes" />
      <point x="184" y="-53" />
      <point x="160" y="-27" />
      <point x="160" y="15" type="curve" smooth="yes" />
      <point x="160" y="44" />
      <point x="168" y="67" />
      <point x="195" y="98" type="curve" smooth="yes" />
      <point x="241" y="153" type="line" smooth="yes" />
      <point x="284" y="201" />
      <point x="290" y="225" />
      <point x="290" y="281" type="curve" smooth="yes" />
      <point x="290" y="318" type="line" />
      <point x="167" y="318" type="line" />
      <point x="167" y="290" type="line" smooth="yes" />
      <point x="167" y="251" />
      <point x="163" y="233" />
      <point x="132" y="198" type="curve" smooth="yes" />
      <point x="88" y="148" type="line" smooth="yes" />
      <point x="48" y="100" />
      <point x="34" y="63" />
      <point x="34" y="9" type="curve" smooth="yes" />
      <point x="34" y="-89" />
      <point x="110" y="-164" />
    </contour>
    <contour>
      <point x="164" y="384" type="line" />
      <point x="292" y="384" type="line" />
      <point x="292" y="512" type="line" />
      <point x="164" y="512" type="line" />
    </contour>
  </outline>
</glyph>
<glyph name="AE" format="2">
  <advance width="870" />
  <unicode hex="00C6" />
  <outline>
    <contour>
      <point x="4" y="0" type="line" />
      <point x="139" y="0" type="line" />
      <point x="206" y="139" type="line" />
      <point x="413" y="139" type="line" />
      <point x="413" y="0" type="line" />
      <point x="835" y="0" type="line" />
      <point x="835" y="113" type="line" />
      <point x="543" y="113" type="line" />
      <point x="543" y="287" type="line" />
      <point x="791" y="287" type="line" />
      <point x="791" y="399" type="line" />
      <point x="543" y="399" type="line" />
      <point x="543" y="568" type="line" />
      <point x="835" y="568" type="line" />
      <point x="835" y="680" type="line" />
      <point x="339" y="680" type="line" />
    </contour>
    <contour>
      <point x="258" y="246" type="line" />
      <point x="413" y="570" type="line" />
      <point x="413" y="246" type="line" />
    </contour>
  </outline>
</glyph>
<glyph name="Eth" format="2">
  <advance width="659" />
  <unicode hex="00D0" />
  <outline>
    <contour>
      <point x="110" y="0" type="line" />
      <point x="345" y="0" type="line" smooth="yes" />
      <point x="497" y="0" />
      <point x="594" y="79" />
      <point x="594" y="271" type="curve" smooth="yes" />
      <point x="594" y="410" type="line" smooth="yes" />
      <point x="594" y="602" />
      <point x="501" y="680" />
      <point x="349" y="680" type="curve" smooth="yes" />
      <point x="110" y="680" type="line" />
      <point x="110" y="403" type="line" />
      <point x="38" y="403" type="line" />
      <point x="38" y="290" type="line" />
      <point x="110" y="290" type="line" />
    </contour>
    <contour>
      <point x="239" y="113" type="line" />
      <point x="239" y="290" type="line" />
      <point x="355" y="290" type="line" />
      <point x="355" y="403" type="line" />
      <point x="239" y="403" type="line" />
      <point x="239" y="568" type="line" />
      <point x="348" y="568" type="line" smooth="yes" />
      <point x="427" y="568" />
      <point x="465" y="518" />
      <point x="465" y="403" type="curve" smooth="yes" />
      <point x="465" y="272" type="line" smooth="yes" />
      <point x="465" y="163" />
      <point x="425" y="113" />
      <point x="348" y="113" type="curve" smooth="yes" />
    </contour>
  </outline>
</glyph>
<glyph name="Oslash" format="2">
  <advance width="605" />
  <unicode hex="00D8" />
  <anchor x="295" y="680" name="top" />
  <outline>
    <component base="O" />
    <contour>
      <point x="50" y="-19" type="line" />
      <point x="123" y="-19" type="line" />
      <point x="556" y="704" type="line" />
      <point x="484" y="704" type="line" />
    </contour>
  </outline>
</glyph>
<glyph name="Thorn" format="2">
  <advance width="558" />
  <unicode hex="00DE" />
  <outline>
    <contour>
      <point x="58" y="0" type="line" />
      <point x="188" y="0" type="line" />
      <point x="188" y="147" type="line" />
      <point x="313" y="147" type="line" smooth="yes" />
      <point x="451" y="147" />
      <point x="535" y="227" />
      <point x="535" y="354" type="curve" smooth="yes" />
      <point x="535" y="487" />
      <point x="451" y="568" />
      <point x="313" y="568" type="curve" smooth="yes" />
      <point x="188" y="568" type="line" />
      <point x="188" y="680" type="line" />
      <point x="58" y="680" type="line" />
    </contour>
    <contour>
      <point x="188" y="259" type="line" />
      <point x="188" y="455" type="line" />
      <point x="306" y="455" type="line" smooth="yes" />
      <point x="369" y="455" />
      <point x="406" y="419" />
      <point x="406" y="354" type="curve" smooth="yes" />
      <point x="406" y="294" />
      <point x="367" y="259" />
      <point x="306" y="259" type="curve" smooth="yes" />
    </contour>
  </outline>
</glyph>
<glyph name="germandbls" format="2">
  <advance width="516" />
  <unicode hex="00DF" />
  <outline>
    <contour>
      <point x="250" y="-4" type="line" />
      <point x="290" y="-4" type="line" smooth="yes" />
      <point x="443" y="-4" />
      <point x="471" y="48" />
      <point x="471" y="224" type="curve" smooth="yes" />
      <point x="471" y="342" />
      <point x="465" y="380" />
      <point x="407" y="412" type="curve" />
      <point x="445" y="439" />
      <point x="463" y="475" />
      <point x="463" y="527" type="curve" smooth="yes" />
      <point x="463" y="631" />
      <point x="389" y="690" />
      <point x="260" y="690" type="curve" smooth="yes" />
      <point x="115" y="690" />
      <point x="53" y="621" />
      <point x="53" y="491" type="curve" smooth="yes" />
      <point x="53" y="0" type="line" />
      <point x="175" y="0" type="line" />
      <point x="175" y="501" type="line" smooth="yes" />
      <point x="175" y="559" />
      <point x="201" y="585" />
      <point x="261" y="585" type="curve" smooth="yes" />
      <point x="316" y="585" />
      <point x="341" y="566" />
      <point x="341" y="521" type="curve" smooth="yes" />
      <point x="341" y="479" />
      <point x="325" y="458" />
      <point x="281" y="458" type="curve" smooth="yes" />
      <point x="250" y="458" type="line" />
      <point x="250" y="357" type="line" />
      <point x="273" y="357" type="line" smooth="yes" />
      <point x="345" y="357" />
      <point x="351" y="331" />
      <point x="351" y="227" type="curve" smooth="yes" />
      <point x="351" y="120" />
      <point x="348" y="98" />
      <point x="282" y="98" type="curve" smooth="yes" />
      <point x="250" y="98" type="line" />
    </contour>
  </outline>
</glyph>
<glyph name="ae" format="2">
  <advance width="812" />
  <unicode hex="00E6" />
  <outline>
    <contour>
      <point x="225" y="-7" type="curve" smooth="yes" />
      <point x="296" y="-7" />
      <point x="355" y="16" />
      <point x="394" y="57" type="curve" />
      <point x="436" y="14" />
      <point x="492" y="-7" />
      <point x="563" y="-7" type="curve" smooth="yes" />
      <point x="689" y="-7" />
      <point x="764" y="65" />
      <point x="764" y="156" type="curve" smooth="yes" />
      <point x="764" y="161" type="line" />
      <point x="646" y="161" type="line" />
      <point x="646" y="158" type="line" smooth="yes" />
      <point x="644" y="120" />
      <point x="610" y="98" />
      <point x="560" y="98" type="curve" smooth="yes" />
      <point x="491" y="98" />
      <point x="455" y="132" />
      <point x="455" y="210" type="curve" smooth="yes" />
      <point x="455" y="219" type="line" />
      <point x="768" y="219" type="line" />
      <point x="768" y="286" type="line" smooth="yes" />
      <point x="768" y="439" />
      <point x="684" y="519" />
      <point x="551" y="519" type="curve" smooth="yes" />
      <point x="491" y="519" />
      <point x="441" y="501" />
      <point x="402" y="467" type="curve" />
      <point x="365" y="500" />
      <point x="313" y="518" />
      <point x="246" y="518" type="curve" smooth="yes" />
      <point x="127" y="518" />
      <point x="50" y="459" />
      <point x="50" y="363" type="curve" smooth="yes" />
      <point x="50" y="359" type="line" />
      <point x="164" y="359" type="line" />
      <point x="164" y="362" type="line" smooth="yes" />
      <point x="164" y="399" />
      <point x="192" y="424" />
      <point x="244" y="424" type="curve" smooth="yes" />
      <point x="304" y="424" />
      <point x="334" y="396" />
      <point x="334" y="340" type="curve" smooth="yes" />
      <point x="334" y="303" type="line" />
      <point x="217" y="303" type="line" smooth="yes" />
      <point x="102" y="303" />
      <point x="36" y="248" />
      <point x="36" y="154" type="curve" smooth="yes" />
      <point x="36" y="55" />
      <point x="109" y="-7" />
    </contour>
    <contour>
      <point x="154" y="158" type="curve" smooth="yes" />
      <point x="154" y="199" />
      <point x="182" y="219" />
      <point x="238" y="219" type="curve" smooth="yes" />
      <point x="334" y="219" type="line" />
      <point x="334" y="189" type="line" smooth="yes" />
      <point x="334" y="124" />
      <point x="301" y="92" />
      <point x="235" y="92" type="curve" smooth="yes" />
      <point x="181" y="92" />
      <point x="154" y="114" />
    </contour>
    <contour>
      <point x="455" y="303" type="line" />
      <point x="455" y="306" type="line" smooth="yes" />
      <point x="455" y="382" />
      <point x="490" y="415" />
      <point x="551" y="415" type="curve" smooth="yes" />
      <point x="613" y="415" />
      <point x="646" y="381" />
      <point x="646" y="316" type="curve" smooth="yes" />
      <point x="646" y="303" type="line" />
    </contour>
  </outline>
</glyph>
<glyph name="eth" format="2">
  <advance width="516" />
  <unicode hex="00F0" />
  <outline>
    <contour>
      <point x="257" y="-11" type="curve" smooth="yes" />
      <point x="392" y="-11" />
      <point x="471" y="72" />
      <point x="471" y="216" type="curve" smooth="yes" />
      <point x="471" y="252" type="line" smooth="yes" />
      <point x="471" y="345" />
      <point x="440" y="423" />
      <point x="366" y="524" type="curve" smooth="yes" />
      <point x="339" y="561" type="line" />
      <point x="412" y="582" type="line" />
      <point x="387" y="660" type="line" />
      <point x="288" y="630" type="line" />
      <point x="247" y="685" type="line" />
      <point x="119" y="685" type="line" />
      <point x="182" y="599" type="line" />
      <point x="100" y="575" type="line" />
      <point x="125" y="497" type="line" />
      <point x="232" y="530" type="line" />
      <point x="294" y="444" type="line" />
      <point x="274" y="454" />
      <point x="250" y="458" />
      <point x="222" y="458" type="curve" smooth="yes" />
      <point x="112" y="458" />
      <point x="44" y="374" />
      <point x="44" y="247" type="curve" smooth="yes" />
      <point x="44" y="209" type="line" smooth="yes" />
      <point x="44" y="72" />
      <point x="122" y="-11" />
    </contour>
    <contour>
      <point x="158" y="211" type="curve" smooth="yes" />
      <point x="158" y="250" type="line" smooth="yes" />
      <point x="158" y="322" />
      <point x="192" y="360" />
      <point x="259" y="360" type="curve" smooth="yes" />
      <point x="323" y="360" />
      <point x="357" y="320" />
      <point x="357" y="248" type="curve" smooth="yes" />
      <point x="357" y="212" type="line" smooth="yes" />
      <point x="357" y="136" />
      <point x="323" y="95" />
      <point x="259" y="95" type="curve" smooth="yes" />
      <point x="191" y="95" />
      <point x="158" y="136" />
    </contour>
  </outline>
</glyph>
<glyph name="oslash" format="2">
  <advance width="502" />
  <unicode hex="00F8" />
  <outline>
    <component base="o" />
    <contour>
      <point x="44" y="-29" type="line" />
      <point x="106" y="-29" type="line" />
      <point x="458" y="538" type="line" />
      <point x="397" y="538" type="line" />
    </contour>
  </outline>
</glyph>
<glyph name="thorn" format="2">
  <advance width="522" />
  <unicode hex="00FE" />
  <outline>
    <contour>
      <point x="53" y="-154" type="line" />
      <point x="172" y="-154" type="line" />
      <point x="172" y="48" type="line" />
      <point x="203" y="12" />
      <point x="245" y="-7" />
      <point x="300" y="-7" type="curve" smooth="yes" />
      <point x="403" y="-7" />
      <point x="478" y="68" />
      <point x="478" y="212" type="curve" smooth="yes" />
      <point x="478" y="303" type="line" smooth="yes" />
      <point x="478" y="446" />
      <point x="405" y="519" />
      <point x="297" y="519" type="curve" smooth="yes" />
      <point x="246" y="519" />
      <point x="204" y="497" />
      <point x="175" y="458" type="curve" />
      <point x="175" y="680" type="line" />
      <point x="53" y="680" type="line" />
    </contour>
    <contour>
      <point x="174" y="214" type="curve" smooth="yes" />
      <point x="174" y="298" type="line" smooth="yes" />
      <point x="174" y="370" />
      <point x="210" y="411" />
      <point x="266" y="411" type="curve" smooth="yes" />
      <point x="323" y="411" />
      <point x="356" y="376" />
      <point x="356" y="297" type="curve" smooth="yes" />
      <point x="356" y="216" type="line" smooth="yes" />
      <point x="356" y="140" />
      <point x="327" y="101" />
      <point x="269" y="101" type="curve" smooth="yes" />
      <point x="210" y="101" />
      <point x="174" y="142" />
    </contour>
  </outline>
</glyph>
<glyph name="dcroat" format="2">
  <advance width="526" />
  <unicode hex="0111" />
  <outline>
    <component base="d" />
    <contour>
      <point x="237" y="559" type="line" />
      <point x="524" y="559" type="line" />
      <point x="524" y="629" type="line" />
      <point x="237" y="629" type="line" />
    </contour>
  </outline>
</glyph>
<glyph name="eogonek" format="2">
  <advance width="509" />
  <unicode hex="0119" />
  <outline>
    <component base="e" />
    <contour>
      <point x="391" y="-189" type="curve" />
      <point x="391" y="-104" type="line" />
      <point x="351" y="-103" />
      <point x="327" y="-106" />
      <point x="303" y="-81" type="curve" />
      <point x="391" y="41" type="line" />
      <point x="313" y="41" type="line" />
      <point x="205" y="-73" type="line" />
      <point x="215" y="-100" />
      <point x="227" y="-122" />
      <point x="246" y="-139" type="curve" smooth="yes" />
      <point x="282" y="-172" />
      <point x="331" y="-189" />
    </contour>
  </outline>
</glyph>
<glyph name="gcommaaccent" format="2">
  <advance width="509" />
  <unicode hex="0123" />
  <outline>
    <component base="g" />
    <contour>
      <point x="195" y="543" type="line" />
      <point x="291" y="543" type="line" />
      <point x="291" y="680" type="line" />
      <point x="195" y="602" type="line" />
    </contour>
  </outline>
</glyph>
<glyph name="Hbar" format="2">
  <advance width="599" />
  <unicode hex="0126" />
  <outline>
    <component base="H" />
    <contour>
      <point x="10" y="495" type="line" />
      <point x="589" y="495" type="line" />
      <point x="589" y="609" type="line" />
      <point x="10" y="609" type="line" />
    </contour>
  </outline>
</glyph>
<glyph name="hbar" format="2">
  <advance width="542" />
  <unicode hex="0127" />
  <outline>
    <component base="h" />
    <contour>
      <point x="7" y="563" type="line" />
      <point x="288" y="563" type="line" />
      <point x="288" y="628" type="line" />
      <point x="7" y="628" type="line" />
    </contour>
  </outline>
</glyph>
<glyph name="dotlessi" format="2">
  <advance width="247" />
  <unicode hex="0131" />
  <anchor x="123" y="512" name="top" />
  <outline>
    <contour>
      <point x="63" y="0" type="line" />
      <point x="184" y="0" type="line" />
      <point x="184" y="512" type="line" />
      <point x="63" y="512" type="line" />
    </contour>
  </outline>
</glyph>
<glyph name="IJ" format="2">
  <advance width="621" />
  <unicode hex="0132" />
  <outline>
    <contour>
      <point x="310" y="-6" type="curve" smooth="yes" />
      <point x="455" y="-6" />
      <point x="564" y="91" />
      <point x="564" y="230" type="curve" smooth="yes" />
      <point x="564" y="680" type="line" />
      <point x="434" y="680" type="line" />
      <point x="434" y="235" type="line" smooth="yes" />
      <point x="434" y="153" />
      <point x="388" y="107" />
      <point x="310" y="107" type="curve" smooth="yes" />
      <point x="244" y="107" />
      <point x="202" y="140" />
      <point x="192" y="199" type="curve" />
      <point x="61" y="199" type="line" />
      <point x="73" y="79" />
      <point x="176" y="-6" />
    </contour>
    <contour>
      <point x="58" y="339" type="line" />
      <point x="188" y="339" type="line" />
      <point x="188" y="680" type="line" />
      <point x="58" y="680" type="line" />
    </contour>
  </outline>
</glyph>
<glyph name="ij" format="2">
  <advance width="486" />
  <unicode hex="0133" />
  <outline>
    <contour>
      <point x="252" y="-162" type="curve" smooth="yes" />
      <point x="389" y="-162" />
      <point x="433" y="-73" />
      <point x="433" y="40" type="curve" smooth="yes" />
      <point x="433" y="512" type="line" />
      <point x="312" y="512" type="line" />
      <point x="312" y="255" type="line" smooth="yes" />
      <point x="312" y="193" />
      <point x="307" y="155" />
      <point x="246" y="155" type="curve" smooth="yes" />
      <point x="189" y="155" />
      <point x="175" y="183" />
      <point x="175" y="257" type="curve" smooth="yes" />
      <point x="175" y="512" type="line" />
      <point x="53" y="512" type="line" />
      <point x="53" y="253" type="line" smooth="yes" />
      <point x="53" y="110" />
      <point x="126" y="47" />
      <point x="231" y="46" type="curve" smooth="yes" />
      <point x="280" y="46" />
      <point x="301" y="49" />
      <point x="314" y="92" type="curve" />
      <point x="314" y="33" type="line" smooth="yes" />
      <point x="314" y="-33" />
      <point x="302" y="-65" />
      <point x="243" y="-65" type="curve" smooth="yes" />
      <point x="197" y="-65" />
      <point x="186" y="-43" />
      <point x="178" y="-12" type="curve" />
      <point x="61" y="-12" type="line" />
      <point x="66" y="-106" />
      <point x="131" y="-162" />
    </contour>
    <contour>
      <point x="53" y="583" type="line" />
      <point x="175" y="583" type="line" />
      <point x="175" y="681" type="line" />
      <point x="53" y="681" type="line" />
    </contour>
    <contour>
      <point x="312" y="583" type="line" />
      <point x="433" y="583" type="line" />
      <point x="433" y="681" type="line" />
      <point x="312" y="681" type="line" />
    </contour>
  </outline>
</glyph>
<glyph name="Lslash" format="2">
  <advance width="514" />
  <unicode hex="0141" />
  <outline>
    <component base="L" />
    <contour>
      <point x="19" y="268" type="line" />
      <point x="299" y="400" type="line" />
      <point x="299" y="509" type="line" />
      <point x="20" y="377" type="line" />
    </contour>
  </outline>
</glyph>
<glyph name="lslash" format="2">
  <advance width="282" />
  <unicode hex="0142" />
  <outline>
    <component base="l" />
    <contour>
      <point x="-10" y="269" type="line" />
      <point x="271" y="400" type="line" />
      <point x="271" y="510" type="line" />
      <point x="-10" y="378" type="line" />
    </contour>
  </outline>
</glyph>
<glyph name="Eng" format="2">
  <advance width="624" />
  <unicode hex="014A" />
  <outline>
    <contour>
      <point x="355" y="-166" type="line" />
      <point x="411" y="-166" type="line" smooth="yes" />
      <point x="509" y="-166" />
      <point x="567" y="-123" />
      <point x="567" y="0" type="curve" />
      <point x="567" y="680" type="line" />
      <point x="438" y="680" type="line" />
      <point x="438" y="254" type="line" />
      <point x="188" y="680" type="line" />
      <point x="58" y="680" type="line" />
      <point x="58" y="0" type="line" />
      <point x="188" y="0" type="line" />
      <point x="188" y="424" type="line" />
      <point x="438" y="0" type="line" />
      <point x="438" y="-1" type="line" smooth="yes" />
      <point x="438" y="-48" />
      <point x="424" y="-61" />
      <point x="390" y="-61" type="curve" smooth="yes" />
      <point x="355" y="-61" type="line" />
    </contour>
  </outline>
</glyph>
<glyph name="eng" format="2">
  <advance width="512" />
  <unicode hex="014B" />
  <outline>
    <contour>
      <point x="247" y="-166" type="line" />
      <point x="303" y="-166" type="line" smooth="yes" />
      <point x="411" y="-166" />
      <point x="459" y="-160" />
      <point x="459" y="0" type="curve" smooth="yes" />
      <point x="459" y="334" type="line" smooth="yes" />
      <point x="459" y="447" />
      <point x="399" y="518" />
      <point x="293" y="518" type="curve" smooth="yes" />
      <point x="247" y="518" />
      <point x="203" y="500" />
      <point x="172" y="466" type="curve" />
      <point x="172" y="512" type="line" />
      <point x="53" y="512" type="line" />
      <point x="53" y="0" type="line" />
      <point x="175" y="0" type="line" />
      <point x="175" y="319" type="line" smooth="yes" />
      <point x="175" y="377" />
      <point x="209" y="410" />
      <point x="257" y="410" type="curve" smooth="yes" />
      <point x="305" y="410" />
      <point x="337" y="377" />
      <point x="337" y="319" type="curve" smooth="yes" />
      <point x="337" y="0" type="line" smooth="yes" />
      <point x="337" y="-47" />
      <point x="321" y="-61" />
      <point x="289" y="-61" type="curve" smooth="yes" />
      <point x="247" y="-61" type="line" />
    </contour>
  </outline>
</glyph>
<glyph name="OE" format="2">
  <advance width="897" />
  <unicode hex="0152" />
  <outline>
    <contour>
      <point x="296" y="-9" type="curve" smooth="yes" />
      <point x="352" y="-9" />
      <point x="401" y="5" />
      <point x="442" y="32" type="curve" />
      <point x="442" y="0" type="line" />
      <point x="863" y="0" type="line" />
      <point x="863" y="113" type="line" />
      <point x="563" y="113" type="line" />
      <point x="563" y="287" type="line" />
      <point x="817" y="287" type="line" />
      <point x="817" y="399" type="line" />
      <point x="563" y="399" type="line" />
      <point x="563" y="568" type="line" />
      <point x="863" y="568" type="line" />
      <point x="863" y="680" type="line" />
      <point x="442" y="680" type="line" />
      <point x="442" y="649" type="line" />
      <point x="401" y="677" />
      <point x="354" y="691" />
      <point x="298" y="691" type="curve" smooth="yes" />
      <point x="150" y="691" />
      <point x="50" y="603" />
      <point x="50" y="412" type="curve" smooth="yes" />
      <point x="50" y="269" type="line" smooth="yes" />
      <point x="50" y="77" />
      <point x="146" y="-9" />
    </contour>
    <contour>
      <point x="180" y="271" type="curve" smooth="yes" />
      <point x="180" y="405" type="line" smooth="yes" />
      <point x="180" y="525" />
      <point x="219" y="577" />
      <point x="308" y="577" type="curve" smooth="yes" />
      <point x="392" y="577" />
      <point x="434" y="523" />
      <point x="434" y="405" type="curve" smooth="yes" />
      <point x="434" y="271" type="line" smooth="yes" />
      <point x="434" y="159" />
      <point x="392" y="107" />
      <point x="308" y="107" type="curve" smooth="yes" />
      <point x="219" y="107" />
      <point x="180" y="157" />
    </contour>
  </outline>
</glyph>
<glyph name="oe" format="2">
  <advance width="821" />
  <unicode hex="0153" />
  <outline>
    <contour>
      <point x="258" y="-7" type="curve" smooth="yes" />
      <point x="323" y="-7" />
      <point x="375" y="11" />
      <point x="412" y="46" type="curve" />
      <point x="448" y="11" />
      <point x="500" y="-7" />
      <point x="567" y="-7" type="curve" smooth="yes" />
      <point x="695" y="-7" />
      <point x="772" y="58" />
      <point x="773" y="156" type="curve" smooth="yes" />
      <point x="773" y="161" type="line" />
      <point x="657" y="161" type="line" />
      <point x="657" y="158" type="line" smooth="yes" />
      <point x="654" y="120" />
      <point x="621" y="99" />
      <point x="572" y="99" type="curve" smooth="yes" />
      <point x="504" y="99" />
      <point x="468" y="131" />
      <point x="468" y="209" type="curve" smooth="yes" />
      <point x="468" y="220" type="line" />
      <point x="777" y="220" type="line" />
      <point x="777" y="287" type="line" smooth="yes" />
      <point x="777" y="439" />
      <point x="694" y="519" />
      <point x="563" y="519" type="curve" smooth="yes" />
      <point x="499" y="519" />
      <point x="449" y="501" />
      <point x="411" y="466" type="curve" />
      <point x="375" y="501" />
      <point x="323" y="519" />
      <point x="258" y="519" type="curve" smooth="yes" />
      <point x="125" y="519" />
      <point x="44" y="448" />
      <point x="44" y="301" type="curve" smooth="yes" />
      <point x="44" y="213" type="line" smooth="yes" />
      <point x="44" y="64" />
      <point x="125" y="-7" />
    </contour>
    <contour>
      <point x="165" y="214" type="curve" smooth="yes" />
      <point x="165" y="299" type="line" smooth="yes" />
      <point x="165" y="372" />
      <point x="196" y="411" />
      <point x="258" y="411" type="curve" smooth="yes" />
      <point x="316" y="411" />
      <point x="347" y="373" />
      <point x="347" y="299" type="curve" smooth="yes" />
      <point x="347" y="214" type="line" smooth="yes" />
      <point x="347" y="139" />
      <point x="318" y="102" />
      <point x="258" y="102" type="curve" smooth="yes" />
      <point x="196" y="102" />
      <point x="165" y="139" />
    </contour>
    <contour>
      <point x="468" y="304" type="line" />
      <point x="468" y="315" type="line" smooth="yes" />
      <point x="468" y="385" />
      <point x="506" y="415" />
      <point x="563" y="415" type="curve" smooth="yes" />
      <point x="624" y="415" />
      <point x="656" y="382" />
      <point x="656" y="316" type="curve" smooth="yes" />
      <point x="656" y="304" type="line" />
    </contour>
  </outline>
</glyph>
<glyph name="tbar" format="2">
  <advance width="369" />
  <unicode hex="0167" />
  <outline>
    <component base="t" />
    <contour>
      <point x="25" y="254" type="line" />
      <point x="324" y="254" type="line" />
      <point x="324" y="342" type="line" />
      <point x="25" y="342" type="line" />
    </contour>
  </outline>
</glyph>
<glyph name="Uogonek" format="2">
  <advance width="625" />
  <unicode hex="0172" />
  <outline>
    <component base="U" />
    <contour>
      <point x="426" y="-201" type="curve" />
      <point x="426" y="-110" type="line" />
      <point x="382" y="-109" />
      <point x="356" y="-112" />
      <point x="330" y="-85" type="curve" />
      <point x="427" y="22" type="line" />
      <point x="316" y="3" type="line" />
      <point x="224" y="-77" type="line" />
      <point x="235" y="-106" />
      <point x="248" y="-129" />
      <point x="269" y="-147" type="curve" smooth="yes" />
      <point x="308" y="-183" />
      <point x="361" y="-200" />
    </contour>
  </outline>
</glyph>
<glyph name="uogonek" format="2">
  <advance width="541" />
  <unicode hex="0173" />
  <outline>
    <component base="u" />
    <contour>
      <point x="391" y="-187" type="curve" />
      <point x="391" y="-101" type="line" />
      <point x="346" y="-100" />
      <point x="319" y="-103" />
      <point x="292" y="-78" type="curve" />
      <point x="391" y="23" type="line" />
      <point x="281" y="3" type="line" />
      <point x="183" y="-70" type="line" />
      <point x="194" y="-97" />
      <point x="208" y="-119" />
      <point x="229" y="-136" type="curve" smooth="yes" />
      <point x="268" y="-169" />
      <point x="323" y="-186" />
    </contour>
  </outline>
</glyph>
<glyph name="florin" format="2">
  <advance width="426" />
  <unicode hex="0192" />
  <outline>
    <contour>
      <point x="9" y="-154" type="line" />
      <point x="57" y="-154" type="line" smooth="yes" />
      <point x="166" y="-154" />
      <point x="216" y="-108" />
      <point x="236" y="12" type="curve" smooth="yes" />
      <point x="280" y="309" type="line" />
      <point x="400" y="309" type="line" />
      <point x="400" y="417" type="line" />
      <point x="295" y="417" type="line" />
      <point x="309" y="504" type="line" smooth="yes" />
      <point x="316" y="550" />
      <point x="337" y="568" />
      <point x="380" y="568" type="curve" smooth="yes" />
      <point x="417" y="568" type="line" />
      <point x="417" y="680" type="line" />
      <point x="364" y="680" type="line" smooth="yes" />
      <point x="256" y="680" />
      <point x="205" y="631" />
      <point x="188" y="518" type="curve" smooth="yes" />
      <point x="172" y="417" type="line" />
      <point x="75" y="417" type="line" />
      <point x="75" y="309" type="line" />
      <point x="157" y="309" type="line" />
      <point x="115" y="27" type="line" smooth="yes" />
      <point x="107" y="-23" />
      <point x="88" y="-38" />
      <point x="41" y="-38" type="curve" smooth="yes" />
      <point x="9" y="-38" type="line" />
    </contour>
  </outline>
</glyph>
<glyph name="lbar" format="2">
  <advance width="310" />
  <unicode hex="019A" />
  <outline>
    <component base="l" />
    <contour>
      <point x="9" y="297" type="line" />
      <point x="270" y="297" type="line" />
      <point x="270" y="411" type="line" />
      <point x="9" y="411" type="line" />
    </contour>
  </outline>
</glyph>
<glyph name="oogonek" format="2">
  <advance width="502" />
  <unicode hex="01EB" />
  <outline>
    <contour>
      <point x="329" y="-215" type="curve" />
      <point x="329" y="-129" type="line" />
      <point x="289" y="-128" />
      <point x="265" y="-131" />
      <point x="240" y="-106" type="curve" />
      <point x="329" y="5" type="line" />
      <point x="410" y="28" />
      <point x="458" y="95" />
      <point x="458" y="209" type="curve" smooth="yes" />
      <point x="458" y="304" type="line" smooth="yes" />
      <point x="458" y="450" />
      <point x="379" y="518" />
      <point x="252" y="518" type="curve" smooth="yes" />
      <point x="123" y="518" />
      <point x="44" y="450" />
      <point x="44" y="304" type="curve" smooth="yes" />
      <point x="44" y="209" type="line" smooth="yes" />
      <point x="44" y="71" />
      <point x="114" y="3" />
      <point x="230" y="-5" type="curve" />
      <point x="142" y="-98" type="line" />
      <point x="152" y="-125" />
      <point x="164" y="-147" />
      <point x="184" y="-164" type="curve" smooth="yes" />
      <point x="219" y="-197" />
      <point x="268" y="-214" />
    </contour>
    <contour>
      <point x="165" y="210" type="curve" smooth="yes" />
      <point x="165" y="302" type="line" smooth="yes" />
      <point x="165" y="373" />
      <point x="194" y="410" />
      <point x="252" y="410" type="curve" smooth="yes" />
      <point x="309" y="410" />
      <point x="337" y="373" />
      <point x="337" y="302" type="curve" smooth="yes" />
      <point x="337" y="210" type="line" smooth="yes" />
      <point x="337" y="139" />
      <point x="309" y="102" />
      <point x="252" y="102" type="curve" smooth="yes" />
      <point x="194" y="102" />
      <point x="165" y="139" />
    </contour>
  </outline>
</glyph>
<glyph name="dotlessj" format="2">
  <advance width="237" />
  <unicode hex="0237" />
  <anchor x="120" y="512" name="top" />
  <outline>
    <contour>
      <point x="-40" y="-154" type="line" />
      <point x="19" y="-154" type="line" smooth="yes" />
      <point x="123" y="-154" />
      <point x="179" y="-99" />
      <point x="179" y="5" type="curve" smooth="yes" />
      <point x="179" y="512" type="line" />
      <point x="58" y="512" type="line" />
      <point x="58" y="13" type="line" smooth="yes" />
      <point x="58" y="-32" />
      <point x="42" y="-48" />
      <point x="3" y="-48" type="curve" smooth="yes" />
      <point x="-40" y="-48" type="line" />
    </contour>
  </outline>
</glyph>
<glyph name="circumflex" format="2">
  <advance width="492" />
  <unicode hex="02C6" />
  <outline>
    <contour>
      <point x="88" y="568" type="line" />
      <point x="184" y="568" type="line" />
      <point x="246" y="645" type="line" />
      <point x="309" y="568" type="line" />
      <point x="404" y="568" type="line" />
      <point x="290" y="717" type="line" />
      <point x="201" y="717" type="line" />
    </contour>
  </outline>
</glyph>
<glyph name="caron" format="2">
  <advance width="492" />
  <unicode hex="02C7" />
  <outline>
    <contour>
      <point x="201" y="562" type="line" />
      <point x="290" y="562" type="line" />
      <point x="410" y="710" type="line" />
      <point x="313" y="710" type="line" />
      <point x="246" y="633" type="line" />
      <point x="180" y="710" type="line" />
      <point x="83" y="710" type="line" />
    </contour>
  </outline>
</glyph>
<glyph name="dotaccent" format="2">
  <advance width="492" />
  <unicode hex="02D9" />
  <outline>
    <contour>
      <point x="185" y="586" type="line" />
      <point x="313" y="586" type="line" />
      <point x="313" y="684" type="line" />
      <point x="185" y="684" type="line" />
    </contour>
  </outline>
</glyph>
<glyph name="ring" format="2">
  <advance width="492" />
  <unicode hex="02DA" />
  <outline>
    <contour>
      <point x="244" y="568" type="curve" smooth="yes" />
      <point x="302" y="568" />
      <point x="345" y="612" />
      <point x="345" y="669" type="curve" smooth="yes" />
      <point x="345" y="729" />
      <point x="302" y="772" />
      <point x="244" y="772" type="curve" smooth="yes" />
      <point x="186" y="772" />
      <point x="142" y="729" />
      <point x="142" y="669" type="curve" smooth="yes" />
      <point x="142" y="612" />
      <point x="187" y="568" />
    </contour>
    <contour>
      <point x="199" y="669" type="curve" smooth="yes" />
      <point x="199" y="697" />
      <point x="218" y="718" />
      <point x="244" y="718" type="curve" smooth="yes" />
      <point x="270" y="718" />
      <point x="290" y="697" />
      <point x="290" y="669" type="curve" smooth="yes" />
      <point x="290" y="643" />
      <point x="270" y="622" />
      <point x="244" y="622" type="curve" smooth="yes" />
      <point x="219" y="622" />
      <point x="199" y="643" />
    </contour>
  </outline>
</glyph>
<glyph name="ogonek" format="2">
  <advance width="492" />
  <unicode hex="02DB" />
  <outline>
    <contour>
      <point x="418" y="-215" type="curve" />
      <point x="418" y="-122" type="line" />
      <point x="373" y="-121" />
      <point x="347" y="-124" />
      <point x="320" y="-97" type="curve" />
      <point x="418" y="0" type="line" />
      <point x="418" y="13" type="line" />
      <point x="331" y="9" type="line" />
      <point x="211" y="-88" type="line" />
      <point x="221" y="-118" />
      <point x="236" y="-142" />
      <point x="257" y="-160" type="curve" smooth="yes" />
      <point x="296" y="-197" />
      <point x="351" y="-215" />
    </contour>
  </outline>
</glyph>
<glyph name="gravecomb" format="2">
  <unicode hex="0300" />
  <anchor x="0" y="512" name="_top" />
  <outline>
    <contour>
      <point x="-21" y="579" type="line" />
      <point x="85" y="579" type="line" />
      <point x="-22" y="710" type="line" />
      <point x="-157" y="710" type="line" />
    </contour>
  </outline>
</glyph>
<glyph name="acutecomb" format="2">
  <unicode hex="0301" />
  <anchor x="0" y="512" name="_top" />
  <outline>
    <contour>
      <point x="-91" y="579" type="line" />
      <point x="13" y="579" type="line" />
      <point x="150" y="710" type="line" />
      <point x="14" y="710" type="line" />
    </contour>
  </outline>
</glyph>
<glyph name="circumflexcmb" format="2">
  <unicode hex="0302" />
  <anchor x="0" y="512" name="_top" />
  <outline>
    <contour>
      <point x="-159" y="568" type="line" />
      <point x="-63" y="568" type="line" />
      <point x="0" y="645" type="line" />
      <point x="63" y="568" type="line" />
      <point x="158" y="568" type="line" />
      <point x="44" y="717" type="line" />
      <point x="-45" y="717" type="line" />
    </contour>
  </outline>
</glyph>
<glyph name="tildecomb" format="2">
  <unicode hex="0303" />
  <anchor x="0" y="512" name="_top" />
  <outline>
    <contour>
      <point x="-139" y="573" type="line" />
      <point x="-105" y="604" />
      <point x="-91" y="612" />
      <point x="-64" y="612" type="curve" smooth="yes" />
      <point x="-49" y="612" />
      <point x="-31" y="606" />
      <point x="-10" y="594" type="curve" smooth="yes" />
      <point x="17" y="579" />
      <point x="34" y="574" />
      <point x="59" y="574" type="curve" smooth="yes" />
      <point x="89" y="574" />
      <point x="108" y="586" />
      <point x="139" y="617" type="curve" />
      <point x="139" y="706" type="line" />
      <point x="104" y="675" />
      <point x="91" y="667" />
      <point x="64" y="667" type="curve" smooth="yes" />
      <point x="49" y="667" />
      <point x="31" y="672" />
      <point x="10" y="684" type="curve" smooth="yes" />
      <point x="-17" y="699" />
      <point x="-33" y="704" />
      <point x="-60" y="704" type="curve" smooth="yes" />
      <point x="-90" y="704" />
      <point x="-109" y="693" />
      <point x="-139" y="662" type="curve" />
    </contour>
  </outline>
</glyph>
<glyph name="macroncmb" format="2">
  <unicode hex="0304" />
  <anchor x="0" y="499" name="_top" />
  <outline>
    <contour>
      <point x="-139" y="581" type="line" />
      <point x="139" y="581" type="line" />
      <point x="139" y="690" type="line" />
      <point x="-139" y="690" type="line" />
    </contour>
  </outline>
</glyph>
<glyph name="brevecmb" format="2">
  <unicode hex="0306" />
  <anchor x="0" y="499" name="_top" />
  <outline>
    <contour>
      <point x="0" y="546" type="curve" smooth="yes" />
      <point x="99" y="546" />
      <point x="151" y="601" />
      <point x="151" y="701" type="curve" smooth="yes" />
      <point x="151" y="717" type="line" />
      <point x="73" y="717" type="line" />
      <point x="73" y="701" type="line" smooth="yes" />
      <point x="73" y="644" />
      <point x="49" y="616" />
      <point x="0" y="616" type="curve" smooth="yes" />
      <point x="-49" y="616" />
      <point x="-73" y="644" />
      <point x="-73" y="701" type="curve" smooth="yes" />
      <point x="-73" y="717" type="line" />
      <point x="-151" y="717" type="line" />
      <point x="-151" y="701" type="line" smooth="yes" />
      <point x="-151" y="601" />
      <point x="-99" y="546" />
    </contour>
  </outline>
</glyph>
<glyph name="dotaccentcmb" format="2">
  <unicode hex="0307" />
  <anchor x="0" y="499" name="_top" />
  <outline>
    <contour>
      <point x="-62" y="586" type="line" />
      <point x="66" y="586" type="line" />
      <point x="66" y="684" type="line" />
      <point x="-62" y="684" type="line" />
    </contour>
  </outline>
</glyph>
<glyph name="dieresiscmb" format="2">
  <unicode hex="0308" />
  <anchor x="0" y="512" name="_top" />
  <outline>
    <contour>
      <point x="-148" y="578" type="line" />
      <point x="-42" y="578" type="line" />
      <point x="-42" y="693" type="line" />
      <point x="-148" y="693" type="line" />
    </contour>
    <contour>
      <point x="41" y="578" type="line" />
      <point x="147" y="578" type="line" />
      <point x="147" y="693" type="line" />
      <point x="41" y="693" type="line" />
    </contour>
  </outline>
</glyph>
<glyph name="ringcmb" format="2">
  <unicode hex="030A" />
  <anchor x="0" y="512" name="_top" />
  <outline>
    <contour>
      <point x="0" y="571" type="curve" smooth="yes" />
      <point x="58" y="571" />
      <point x="101" y="615" />
      <point x="101" y="672" type="curve" smooth="yes" />
      <point x="101" y="732" />
      <point x="58" y="775" />
      <point x="0" y="775" type="curve" smooth="yes" />
      <point x="-58" y="775" />
      <point x="-101" y="732" />
      <point x="-101" y="672" type="curve" smooth="yes" />
      <point x="-101" y="615" />
      <point x="-58" y="571" />
    </contour>
    <contour>
      <point x="-45" y="672" type="curve" smooth="yes" />
      <point x="-45" y="699" />
      <point x="-27" y="720" />
      <point x="0" y="720" type="curve" smooth="yes" />
      <point x="26" y="720" />
      <point x="46" y="700" />
      <point x="46" y="672" type="curve" smooth="yes" />
      <point x="46" y="645" />
      <point x="26" y="625" />
      <point x="0" y="625" type="curve" smooth="yes" />
      <point x="-25" y="625" />
      <point x="-45" y="646" />
    </contour>
  </outline>
</glyph>
<glyph name="hungarumlautcmb" format="2">
  <unicode hex="030B" />
  <anchor x="0" y="499" name="_top" />
  <outline>
    <contour>
      <point x="-153" y="579" type="line" />
      <point x="-47" y="579" type="line" />
      <point x="88" y="710" type="line" />
      <point x="-46" y="710" type="line" />
    </contour>
    <contour>
      <point x="39" y="579" type="line" />
      <point x="145" y="579" type="line" />
      <point x="281" y="710" type="line" />
      <point x="146" y="710" type="line" />
    </contour>
  </outline>
</glyph>
<glyph name="caroncmb" format="2">
  <unicode hex="030C" />
  <anchor x="0" y="499" name="_top" />
  <outline>
    <contour>
      <point x="-45" y="562" type="line" />
      <point x="44" y="562" type="line" />
      <point x="158" y="710" type="line" />
      <point x="63" y="710" type="line" />
      <point x="0" y="633" type="line" />
      <point x="-63" y="710" type="line" />
      <point x="-159" y="710" type="line" />
    </contour>
  </outline>
</glyph>
<glyph name="commaturnedabovecmb" format="2">
  <unicode hex="0312" />
  <anchor x="0" y="499" name="_top" />
  <outline>
    <contour>
      <point x="-89" y="579" type="line" />
      <point x="49" y="579" type="line" />
      <point x="159" y="710" type="line" />
      <point x="52" y="710" type="line" />
    </contour>
  </outline>
</glyph>
<glyph name="dotbelowcomb" format="2">
  <unicode hex="0323" />
  <anchor x="0" y="0" name="_bottom" />
  <outline>
    <contour>
      <point x="-63" y="-181" type="line" />
      <point x="66" y="-181" type="line" />
      <point x="66" y="-83" type="line" />
      <point x="-63" y="-83" type="line" />
    </contour>
  </outline>
</glyph>
<glyph name="cedillacmb" format="2">
  <unicode hex="0327" />
  <anchor x="0" y="0" name="_bottom" />
  <outline>
    <contour>
      <point x="150" y="-154" type="line" />
      <point x="264" y="-154" type="line" />
      <point x="320" y="13" type="line" />
      <point x="223" y="13" type="line" />
    </contour>
  </outline>
</glyph>
<glyph name="ogonekcmb" format="2">
  <unicode hex="0328" />
  <anchor x="-1" y="0" name="_bottom" />
  <outline>
    <contour>
      <point x="82" y="-220" type="curve" />
      <point x="82" y="-129" type="line" />
      <point x="38" y="-128" />
      <point x="12" y="-131" />
      <point x="-14" y="-104" type="curve" />
      <point x="82" y="-1" type="line" />
      <point x="82" y="11" type="line" />
      <point x="-13" y="1" type="line" />
      <point x="-120" y="-96" type="line" />
      <point x="-110" y="-124" />
      <point x="-96" y="-148" />
      <point x="-75" y="-165" type="curve" smooth="yes" />
      <point x="-37" y="-202" />
      <point x="16" y="-219" />
    </contour>
  </outline>
</glyph>
<glyph name="alpha" format="2">
  <advance width="619" />
  <unicode hex="03B1" />
  <outline>
    <contour>
      <point x="252" y="-6" type="curve" smooth="yes" />
      <point x="326" y="-6" />
      <point x="384" y="16" />
      <point x="418" y="64" type="curve" />
      <point x="454" y="32" />
      <point x="498" y="15" />
      <point x="556" y="15" type="curve" />
      <point x="556" y="117" type="line" />
      <point x="507" y="119" />
      <point x="472" y="152" />
      <point x="472" y="215" type="curve" smooth="yes" />
      <point x="472" y="297" type="line" smooth="yes" />
      <point x="472" y="360" />
      <point x="507" y="392" />
      <point x="556" y="394" type="curve" />
      <point x="556" y="497" type="line" />
      <point x="498" y="497" />
      <point x="454" y="480" />
      <point x="420" y="449" type="curve" smooth="yes" />
      <point x="388" y="491" />
      <point x="326" y="518" />
      <point x="252" y="518" type="curve" smooth="yes" />
      <point x="123" y="518" />
      <point x="44" y="450" />
      <point x="44" y="304" type="curve" smooth="yes" />
      <point x="44" y="209" type="line" smooth="yes" />
      <point x="44" y="63" />
      <point x="123" y="-6" />
    </contour>
    <contour>
      <point x="165" y="210" type="curve" smooth="yes" />
      <point x="165" y="302" type="line" smooth="yes" />
      <point x="165" y="373" />
      <point x="194" y="410" />
      <point x="252" y="410" type="curve" smooth="yes" />
      <point x="309" y="410" />
      <point x="346" y="373" />
      <point x="346" y="302" type="curve" smooth="yes" />
      <point x="346" y="210" type="line" smooth="yes" />
      <point x="346" y="139" />
      <point x="309" y="102" />
      <point x="252" y="102" type="curve" smooth="yes" />
      <point x="194" y="102" />
      <point x="165" y="139" />
    </contour>
  </outline>
</glyph>
<glyph name="Djecyr" format="2">
  <advance width="669" />
  <unicode hex="0402" />
  <anchor x="215" y="0" name="b.cedilla" />
  <anchor x="244" y="-83" name="bottom" />
  <anchor x="221" y="746" name="top" />
  <outline>
    <contour>
      <point x="179" y="0" type="line" />
      <point x="310" y="0" type="line" />
      <point x="310" y="309" type="line" />
      <point x="391" y="309" type="line" smooth="yes" />
      <point x="453" y="309" />
      <point x="492" y="273" />
      <point x="492" y="215" type="curve" smooth="yes" />
      <point x="492" y="149" />
      <point x="456" y="113" />
      <point x="391" y="113" type="curve" smooth="yes" />
      <point x="371" y="113" type="line" />
      <point x="371" y="0" type="line" />
      <point x="398" y="0" type="line" smooth="yes" />
      <point x="536" y="0" />
      <point x="620" y="82" />
      <point x="620" y="215" type="curve" smooth="yes" />
      <point x="620" y="341" />
      <point x="534" y="422" />
      <point x="398" y="422" type="curve" smooth="yes" />
      <point x="310" y="422" type="line" />
      <point x="310" y="568" type="line" />
      <point x="483" y="568" type="line" />
      <point x="483" y="680" type="line" />
      <point x="6" y="680" type="line" />
      <point x="6" y="568" type="line" />
      <point x="179" y="568" type="line" />
    </contour>
  </outline>
</glyph>
<glyph name="Eukrcyr" format="2">
  <advance width="589" />
  <unicode hex="0404" />
  <guideline x="293" y="0" angle="90" name="h1" />
  <anchor x="293" y="746" name="top" />
  <outline>
    <contour>
      <point x="296" y="-8" type="curve" smooth="yes" />
      <point x="442" y="-8" />
      <point x="540" y="66" />
      <point x="540" y="218" type="curve" smooth="yes" />
      <point x="540" y="225" type="line" />
      <point x="413" y="225" type="line" />
      <point x="413" y="221" type="line" smooth="yes" />
      <point x="413" y="148" />
      <point x="373" y="108" />
      <point x="299" y="108" type="curve" smooth="yes" />
      <point x="202" y="108" />
      <point x="179" y="182" />
      <point x="179" y="265" type="curve" smooth="yes" />
      <point x="179" y="287" type="line" />
      <point x="376" y="287" type="line" />
      <point x="376" y="400" type="line" />
      <point x="179" y="400" type="line" />
      <point x="179" y="412" type="line" smooth="yes" />
      <point x="179" y="494" />
      <point x="196" y="576" />
      <point x="297" y="576" type="curve" smooth="yes" />
      <point x="369" y="576" />
      <point x="413" y="534" />
      <point x="413" y="465" type="curve" smooth="yes" />
      <point x="413" y="457" type="line" />
      <point x="542" y="457" type="line" />
      <point x="542" y="465" type="line" smooth="yes" />
      <point x="542" y="612" />
      <point x="443" y="690" />
      <point x="298" y="690" type="curve" smooth="yes" />
      <point x="122" y="690" />
      <point x="49" y="586" />
      <point x="49" y="418" type="curve" smooth="yes" />
      <point x="49" y="263" type="line" smooth="yes" />
      <point x="49" y="96" />
      <point x="120" y="-8" />
    </contour>
  </outline>
</glyph>
<glyph name="Ljecyr" format="2">
  <advance width="939" />
  <unicode hex="0409" />
  <outline>
    <component base="Elcyr" />
    <contour>
      <point x="513" y="0" type="line" />
      <point x="665" y="0" type="line" smooth="yes" />
      <point x="806" y="0" />
      <point x="891" y="81" />
      <point x="891" y="215" type="curve" smooth="yes" />
      <point x="891" y="342" />
      <point x="804" y="422" />
      <point x="664" y="422" type="curve" smooth="yes" />
      <point x="513" y="422" type="line" />
      <point x="513" y="309" type="line" />
      <point x="661" y="309" type="line" smooth="yes" />
      <point x="724" y="309" />
      <point x="762" y="274" />
      <point x="762" y="215" type="curve" smooth="yes" />
      <point x="762" y="149" />
      <point x="726" y="113" />
      <point x="661" y="113" type="curve" smooth="yes" />
      <point x="513" y="113" type="line" />
    </contour>
  </outline>
</glyph>
<glyph name="Njecyr" format="2">
  <advance width="921" />
  <unicode hex="040A" />
  <outline>
    <component base="H" />
    <contour>
      <point x="505" y="0" type="line" />
      <point x="649" y="0" type="line" smooth="yes" />
      <point x="787" y="0" />
      <point x="871" y="82" />
      <point x="871" y="215" type="curve" smooth="yes" />
      <point x="871" y="341" />
      <point x="785" y="422" />
      <point x="649" y="422" type="curve" smooth="yes" />
      <point x="505" y="422" type="line" />
      <point x="505" y="309" type="line" />
      <point x="643" y="309" type="line" smooth="yes" />
      <point x="704" y="309" />
      <point x="743" y="273" />
      <point x="743" y="215" type="curve" smooth="yes" />
      <point x="743" y="149" />
      <point x="707" y="113" />
      <point x="643" y="113" type="curve" smooth="yes" />
      <point x="505" y="113" type="line" />
    </contour>
  </outline>
</glyph>
<glyph name="Tshecyr" format="2">
  <advance width="714" />
  <unicode hex="040B" />
  <outline>
    <contour>
      <point x="185" y="0" type="line" />
      <point x="316" y="0" type="line" />
      <point x="316" y="309" type="line" />
      <point x="354" y="323" />
      <point x="396" y="328" />
      <point x="436" y="328" type="curve" smooth="yes" />
      <point x="499" y="328" />
      <point x="537" y="274" />
      <point x="537" y="215" type="curve" smooth="yes" />
      <point x="537" y="0" type="line" />
      <point x="666" y="0" type="line" />
      <point x="666" y="215" type="line" smooth="yes" />
      <point x="666" y="342" />
      <point x="579" y="442" />
      <point x="439" y="442" type="curve" smooth="yes" />
      <point x="398" y="442" />
      <point x="356" y="437" />
      <point x="316" y="422" type="curve" />
      <point x="316" y="568" type="line" />
      <point x="494" y="568" type="line" />
      <point x="494" y="680" type="line" />
      <point x="6" y="680" type="line" />
      <point x="6" y="568" type="line" />
      <point x="185" y="568" type="line" />
    </contour>
  </outline>
</glyph>
<glyph name="Dzhecyr" format="2">
  <advance width="579" />
  <unicode hex="040F" />
  <outline>
    <contour>
      <point x="225" y="-164" type="line" />
      <point x="354" y="-164" type="line" />
      <point x="354" y="0" type="line" />
      <point x="521" y="0" type="line" />
      <point x="521" y="680" type="line" />
      <point x="392" y="680" type="line" />
      <point x="392" y="113" type="line" />
      <point x="187" y="113" type="line" />
      <point x="187" y="680" type="line" />
      <point x="58" y="680" type="line" />
      <point x="58" y="0" type="line" />
      <point x="225" y="0" type="line" />
    </contour>
  </outline>
</glyph>
<glyph name="Becyr" format="2">
  <advance width="599" />
  <unicode hex="0411" />
  <outline>
    <contour>
      <point x="58" y="0" type="line" />
      <point x="323" y="0" type="line" smooth="yes" />
      <point x="466" y="0" />
      <point x="551" y="81" />
      <point x="551" y="215" type="curve" smooth="yes" />
      <point x="551" y="342" />
      <point x="464" y="422" />
      <point x="322" y="422" type="curve" smooth="yes" />
      <point x="188" y="422" type="line" />
      <point x="188" y="568" type="line" />
      <point x="505" y="568" type="line" />
      <point x="505" y="680" type="line" />
      <point x="58" y="680" type="line" />
    </contour>
    <contour>
      <point x="188" y="113" type="line" />
      <point x="188" y="309" type="line" />
      <point x="320" y="309" type="line" smooth="yes" />
      <point x="385" y="309" />
      <point x="422" y="274" />
      <point x="422" y="214" type="curve" smooth="yes" />
      <point x="422" y="148" />
      <point x="387" y="113" />
      <point x="320" y="113" type="curve" smooth="yes" />
    </contour>
  </outline>
</glyph>
<glyph name="Decyr" format="2">
  <advance width="691" />
  <unicode hex="0414" />
  <outline>
    <contour>
      <point x="11" y="-164" type="line" />
      <point x="139" y="-164" type="line" />
      <point x="139" y="0" type="line" />
      <point x="551" y="0" type="line" />
      <point x="551" y="-164" type="line" />
      <point x="680" y="-164" type="line" />
      <point x="680" y="113" type="line" />
      <point x="609" y="113" type="line" />
      <point x="609" y="680" type="line" />
      <point x="178" y="680" type="line" />
      <point x="160" y="469" type="line" smooth="yes" />
      <point x="141" y="229" />
      <point x="95" y="128" />
      <point x="44" y="113" type="curve" />
      <point x="11" y="113" type="line" />
    </contour>
    <contour>
      <point x="201" y="113" type="line" />
      <point x="252" y="198" />
      <point x="279" y="320" />
      <point x="289" y="441" type="curve" smooth="yes" />
      <point x="298" y="568" type="line" />
      <point x="480" y="568" type="line" />
      <point x="480" y="113" type="line" />
    </contour>
  </outline>
</glyph>
<glyph name="Zhecyr" format="2">
  <advance width="1000" />
  <unicode hex="0416" />
  <guideline x="239" y="0" angle="90" name="vertical" />
  <guideline x="0" y="680" angle="0" name="horizontal" />
  <guideline x="839" y="0" angle="90" name="vertical" />
  <guideline x="0" y="680" angle="0" name="horizontal" />
  <anchor x="839" y="680" name="top" />
  <outline>
    <contour>
      <point x="10" y="0" type="line" />
      <point x="161" y="0" type="line" />
      <point x="361" y="288" type="line" />
      <point x="436" y="288" type="line" />
      <point x="436" y="0" type="line" />
      <point x="566" y="0" type="line" />
      <point x="566" y="288" type="line" />
      <point x="640" y="288" type="line" />
      <point x="840" y="0" type="line" />
      <point x="991" y="0" type="line" />
      <point x="730" y="379" type="line" />
      <point x="973" y="680" type="line" />
      <point x="816" y="680" type="line" />
      <point x="609" y="400" type="line" />
      <point x="566" y="400" type="line" />
      <point x="566" y="680" type="line" />
      <point x="436" y="680" type="line" />
      <point x="436" y="400" type="line" />
      <point x="391" y="400" type="line" />
      <point x="186" y="680" type="line" />
      <point x="28" y="680" type="line" />
      <point x="270" y="379" type="line" />
    </contour>
  </outline>
</glyph>
<glyph name="Zecyr" format="2">
  <advance width="606" />
  <unicode hex="0417" />
  <outline>
    <contour>
      <point x="319" y="-8" type="curve" smooth="yes" />
      <point x="445" y="-8" />
      <point x="557" y="62" />
      <point x="557" y="191" type="curve" smooth="yes" />
      <point x="557" y="204" type="line" smooth="yes" />
      <point x="557" y="267" />
      <point x="523" y="324" />
      <point x="463" y="350" type="curve" />
      <point x="515" y="376" />
      <point x="548" y="429" />
      <point x="548" y="486" type="curve" smooth="yes" />
      <point x="548" y="494" type="line" smooth="yes" />
      <point x="548" y="623" />
      <point x="430" y="690" />
      <point x="309" y="690" type="curve" smooth="yes" />
      <point x="158" y="690" />
      <point x="59" y="616" />
      <point x="59" y="495" type="curve" smooth="yes" />
      <point x="59" y="491" type="line" />
      <point x="189" y="491" type="line" />
      <point x="189" y="495" type="line" smooth="yes" />
      <point x="189" y="546" />
      <point x="238" y="577" />
      <point x="304" y="577" type="curve" smooth="yes" />
      <point x="373" y="577" />
      <point x="418" y="542" />
      <point x="418" y="487" type="curve" smooth="yes" />
      <point x="418" y="481" type="line" smooth="yes" />
      <point x="418" y="428" />
      <point x="379" y="402" />
      <point x="328" y="402" type="curve" smooth="yes" />
      <point x="239" y="402" type="line" />
      <point x="239" y="290" type="line" />
      <point x="336" y="290" type="line" smooth="yes" />
      <point x="392" y="290" />
      <point x="428" y="260" />
      <point x="428" y="200" type="curve" smooth="yes" />
      <point x="428" y="192" type="line" smooth="yes" />
      <point x="428" y="137" />
      <point x="373" y="105" />
      <point x="316" y="105" type="curve" smooth="yes" />
      <point x="243" y="105" />
      <point x="189" y="139" />
      <point x="189" y="187" type="curve" smooth="yes" />
      <point x="189" y="191" type="line" />
      <point x="59" y="191" type="line" />
      <point x="59" y="184" type="line" smooth="yes" />
      <point x="59" y="69" />
      <point x="164" y="-8" />
    </contour>
  </outline>
</glyph>
<glyph name="Icyr" format="2">
  <advance width="624" />
  <unicode hex="0418" />
  <guideline x="303" y="0" angle="90" name="h1" />
  <anchor x="303" y="746" name="top" />
  <outline>
    <contour>
      <point x="58" y="0" type="line" />
      <point x="187" y="0" type="line" />
      <point x="437" y="424" type="line" />
      <point x="437" y="0" type="line" />
      <point x="567" y="0" type="line" />
      <point x="567" y="680" type="line" />
      <point x="437" y="680" type="line" />
      <point x="187" y="254" type="line" />
      <point x="187" y="680" type="line" />
      <point x="58" y="680" type="line" />
    </contour>
  </outline>
</glyph>
<glyph name="Kacyr" format="2">
  <advance width="600" />
  <unicode hex="041A" />
  <guideline x="0" y="680" angle="0" name="horizontal" />
  <guideline x="291" y="0" angle="90" name="h1" />
  <anchor x="291" y="746" name="top" />
  <outline>
    <contour>
      <point x="58" y="0" type="line" />
      <point x="188" y="0" type="line" />
      <point x="188" y="288" type="line" />
      <point x="246" y="288" type="line" />
      <point x="445" y="0" type="line" />
      <point x="594" y="0" type="line" />
      <point x="338" y="379" type="line" />
      <point x="577" y="680" type="line" />
      <point x="422" y="680" type="line" />
      <point x="215" y="400" type="line" />
      <point x="188" y="400" type="line" />
      <point x="188" y="680" type="line" />
      <point x="58" y="680" type="line" />
    </contour>
  </outline>
</glyph>
<glyph name="Elcyr" format="2">
  <advance width="616" />
  <unicode hex="041B" />
  <outline>
    <contour>
      <point x="20" y="-6" type="line" />
      <point x="148" y="-6" />
      <point x="210" y="70" />
      <point x="220" y="217" type="curve" smooth="yes" />
      <point x="246" y="568" type="line" />
      <point x="428" y="568" type="line" />
      <point x="428" y="0" type="line" />
      <point x="558" y="0" type="line" />
      <point x="558" y="680" type="line" />
      <point x="126" y="680" type="line" />
      <point x="91" y="253" type="line" smooth="yes" />
      <point x="84" y="156" />
      <point x="67" y="113" />
      <point x="20" y="113" type="curve" />
    </contour>
  </outline>
</glyph>
<glyph name="Pecyr" format="2">
  <advance width="592" />
  <unicode hex="041F" />
  <outline>
    <contour>
      <point x="58" y="0" type="line" />
      <point x="188" y="0" type="line" />
      <point x="188" y="568" type="line" />
      <point x="404" y="568" type="line" />
      <point x="404" y="0" type="line" />
      <point x="534" y="0" type="line" />
      <point x="534" y="680" type="line" />
      <point x="58" y="680" type="line" />
    </contour>
  </outline>
</glyph>
<glyph name="Ucyr" format="2">
  <advance width="551" />
  <unicode hex="0423" />
  <guideline x="270" y="0" angle="90" name="h1" />
  <anchor x="270" y="746" name="top" />
  <outline>
    <contour>
      <point x="82" y="-6" type="line" />
      <point x="133" y="-6" type="line" smooth="yes" />
      <point x="220" y="-6" />
      <point x="269" y="32" />
      <point x="313" y="132" type="curve" smooth="yes" />
      <point x="547" y="680" type="line" />
      <point x="404" y="680" type="line" />
      <point x="273" y="364" type="line" />
      <point x="146" y="680" type="line" />
      <point x="4" y="680" type="line" />
      <point x="206" y="200" type="line" />
      <point x="191" y="165" type="line" smooth="yes" />
      <point x="174" y="130" />
      <point x="146" y="113" />
      <point x="111" y="113" type="curve" smooth="yes" />
      <point x="82" y="113" type="line" />
    </contour>
  </outline>
</glyph>
<glyph name="Efcyr" format="2">
  <advance width="698" />
  <unicode hex="0424" />
  <anchor x="348" y="746" name="top" />
  <outline>
    <contour>
      <point x="285" y="0" type="line" />
      <point x="414" y="0" type="line" />
      <point x="414" y="60" type="line" />
      <point x="568" y="63" />
      <point x="649" y="158" />
      <point x="649" y="332" type="curve" smooth="yes" />
      <point x="649" y="363" type="line" smooth="yes" />
      <point x="649" y="536" />
      <point x="568" y="628" />
      <point x="414" y="632" type="curve" />
      <point x="414" y="680" type="line" />
      <point x="285" y="680" type="line" />
      <point x="285" y="632" type="line" />
      <point x="130" y="628" />
      <point x="49" y="534" />
      <point x="49" y="360" type="curve" smooth="yes" />
      <point x="49" y="329" type="line" smooth="yes" />
      <point x="49" y="156" />
      <point x="131" y="63" />
      <point x="285" y="60" type="curve" />
    </contour>
    <contour>
      <point x="285" y="175" type="line" />
      <point x="215" y="180" />
      <point x="179" y="231" />
      <point x="179" y="331" type="curve" smooth="yes" />
      <point x="179" y="353" type="line" smooth="yes" />
      <point x="179" y="459" />
      <point x="214" y="512" />
      <point x="285" y="517" type="curve" />
    </contour>
    <contour>
      <point x="414" y="175" type="curve" />
      <point x="414" y="517" type="line" />
      <point x="484" y="512" />
      <point x="519" y="461" />
      <point x="519" y="361" type="curve" smooth="yes" />
      <point x="519" y="339" type="line" smooth="yes" />
      <point x="519" y="233" />
      <point x="485" y="180" />
    </contour>
  </outline>
</glyph>
<glyph name="Tsecyr" format="2">
  <advance width="603" />
  <unicode hex="0426" />
  <outline>
    <contour>
      <point x="464" y="-164" type="line" />
      <point x="593" y="-164" type="line" />
      <point x="593" y="113" type="line" />
      <point x="520" y="113" type="line" />
      <point x="520" y="680" type="line" />
      <point x="391" y="680" type="line" />
      <point x="391" y="113" type="line" />
      <point x="187" y="113" type="line" />
      <point x="187" y="680" type="line" />
      <point x="58" y="680" type="line" />
      <point x="58" y="0" type="line" />
      <point x="464" y="0" type="line" />
    </contour>
  </outline>
</glyph>
<glyph name="Checyr" format="2">
  <advance width="621" />
  <unicode hex="0427" />
  <outline>
    <contour>
      <point x="435" y="0" type="line" />
      <point x="564" y="0" type="line" />
      <point x="564" y="680" type="line" />
      <point x="435" y="680" type="line" />
      <point x="435" y="356" type="line" />
      <point x="406" y="334" />
      <point x="368" y="326" />
      <point x="310" y="326" type="curve" smooth="yes" />
      <point x="229" y="326" />
      <point x="188" y="376" />
      <point x="188" y="454" type="curve" smooth="yes" />
      <point x="188" y="680" type="line" />
      <point x="58" y="680" type="line" />
      <point x="58" y="449" type="line" smooth="yes" />
      <point x="58" y="307" />
      <point x="157" y="214" />
      <point x="310" y="214" type="curve" smooth="yes" />
      <point x="357" y="214" />
      <point x="397" y="219" />
      <point x="435" y="233" type="curve" />
    </contour>
  </outline>
</glyph>
<glyph name="Shacyr" format="2">
  <advance width="798" />
  <unicode hex="0428" />
  <guideline x="58" y="0" angle="90" />
  <guideline x="187" y="0" angle="90" />
  <guideline x="335" y="0" angle="90" />
  <guideline x="464" y="0" angle="90" />
  <guideline x="612" y="0" angle="90" />
  <guideline x="741" y="0" angle="90" />
  <guideline x="0" y="680" angle="0" />
  <anchor x="651" y="669" name="top" />
  <outline>
    <contour>
      <point x="58" y="0" type="line" />
      <point x="741" y="0" type="line" />
      <point x="741" y="680" type="line" />
      <point x="612" y="680" type="line" />
      <point x="612" y="113" type="line" />
      <point x="464" y="113" type="line" />
      <point x="464" y="680" type="line" />
      <point x="335" y="680" type="line" />
      <point x="335" y="113" type="line" />
      <point x="187" y="113" type="line" />
      <point x="187" y="680" type="line" />
      <point x="58" y="680" type="line" />
    </contour>
  </outline>
</glyph>
<glyph name="Shchacyr" format="2">
  <advance width="858" />
  <unicode hex="0429" />
  <outline>
    <contour>
      <point x="720" y="-164" type="line" />
      <point x="848" y="-164" type="line" />
      <point x="848" y="113" type="line" />
      <point x="741" y="113" type="line" />
      <point x="741" y="680" type="line" />
      <point x="612" y="680" type="line" />
      <point x="612" y="113" type="line" />
      <point x="464" y="113" type="line" />
      <point x="464" y="680" type="line" />
      <point x="335" y="680" type="line" />
      <point x="335" y="113" type="line" />
      <point x="187" y="113" type="line" />
      <point x="187" y="680" type="line" />
      <point x="58" y="680" type="line" />
      <point x="58" y="0" type="line" />
      <point x="720" y="-1" type="line" />
    </contour>
  </outline>
</glyph>
<glyph name="Hardcyr" format="2">
  <advance width="661" />
  <unicode hex="042A" />
  <outline>
    <contour>
      <point x="135" y="0" type="line" />
      <point x="390" y="0" type="line" smooth="yes" />
      <point x="527" y="0" />
      <point x="612" y="82" />
      <point x="612" y="215" type="curve" smooth="yes" />
      <point x="612" y="341" />
      <point x="525" y="422" />
      <point x="390" y="422" type="curve" smooth="yes" />
      <point x="265" y="422" type="line" />
      <point x="265" y="680" type="line" />
      <point x="0" y="680" type="line" />
      <point x="0" y="568" type="line" />
      <point x="135" y="568" type="line" />
    </contour>
    <contour>
      <point x="265" y="113" type="line" />
      <point x="265" y="309" type="line" />
      <point x="383" y="309" type="line" smooth="yes" />
      <point x="444" y="309" />
      <point x="483" y="273" />
      <point x="483" y="215" type="curve" smooth="yes" />
      <point x="483" y="149" />
      <point x="447" y="113" />
      <point x="383" y="113" type="curve" smooth="yes" />
    </contour>
  </outline>
</glyph>
<glyph name="Softcyr" format="2">
  <advance width="584" />
  <unicode hex="042C" />
  <guideline x="273" y="0" angle="90" name="h1" />
  <guideline x="273" y="0" angle="90" name="h1" />
  <anchor x="273" y="746" name="top" />
  <outline>
    <contour>
      <point x="58" y="0" type="line" />
      <point x="313" y="0" type="line" smooth="yes" />
      <point x="450" y="0" />
      <point x="535" y="82" />
      <point x="535" y="215" type="curve" smooth="yes" />
      <point x="535" y="341" />
      <point x="448" y="422" />
      <point x="313" y="422" type="curve" smooth="yes" />
      <point x="188" y="422" type="line" />
      <point x="188" y="680" type="line" />
      <point x="58" y="680" type="line" />
    </contour>
    <contour>
      <point x="188" y="113" type="line" />
      <point x="188" y="309" type="line" />
      <point x="306" y="309" type="line" smooth="yes" />
      <point x="367" y="309" />
      <point x="406" y="273" />
      <point x="406" y="215" type="curve" smooth="yes" />
      <point x="406" y="149" />
      <point x="370" y="113" />
      <point x="306" y="113" type="curve" smooth="yes" />
    </contour>
  </outline>
</glyph>
<glyph name="Ereversedcyr" format="2">
  <advance width="590" />
  <unicode hex="042D" />
  <guideline x="290" y="0" angle="90" name="h1" />
  <anchor x="290" y="746" name="top" />
  <outline>
    <contour>
      <point x="293" y="-8" type="curve" smooth="yes" />
      <point x="458" y="-8" />
      <point x="541" y="82" />
      <point x="541" y="263" type="curve" smooth="yes" />
      <point x="541" y="418" type="line" smooth="yes" />
      <point x="541" y="599" />
      <point x="458" y="690" />
      <point x="291" y="690" type="curve" smooth="yes" />
      <point x="143" y="690" />
      <point x="48" y="606" />
      <point x="48" y="464" type="curve" smooth="yes" />
      <point x="48" y="457" type="line" />
      <point x="177" y="457" type="line" />
      <point x="177" y="463" type="line" smooth="yes" />
      <point x="177" y="532" />
      <point x="219" y="576" />
      <point x="292" y="576" type="curve" smooth="yes" />
      <point x="375" y="576" />
      <point x="411" y="529" />
      <point x="411" y="412" type="curve" smooth="yes" />
      <point x="411" y="400" type="line" />
      <point x="214" y="400" type="line" />
      <point x="214" y="287" type="line" />
      <point x="411" y="287" type="line" />
      <point x="411" y="265" type="line" smooth="yes" />
      <point x="411" y="155" />
      <point x="373" y="108" />
      <point x="290" y="108" type="curve" smooth="yes" />
      <point x="217" y="108" />
      <point x="177" y="150" />
      <point x="177" y="217" type="curve" smooth="yes" />
      <point x="177" y="225" type="line" />
      <point x="50" y="225" type="line" />
      <point x="50" y="218" type="line" smooth="yes" />
      <point x="50" y="72" />
      <point x="141" y="-8" />
    </contour>
  </outline>
</glyph>
<glyph name="Yucyr" format="2">
  <advance width="802" />
  <unicode hex="042E" />
  <guideline x="442" y="0" angle="90" name="h1" />
  <anchor x="442" y="746" name="top" />
  <outline>
    <component base="O" xOffset="212" />
    <contour>
      <point x="58" y="0" type="line" />
      <point x="188" y="0" type="line" />
      <point x="188" y="288" type="line" />
      <point x="327" y="288" type="line" />
      <point x="327" y="400" type="line" />
      <point x="188" y="400" type="line" />
      <point x="188" y="680" type="line" />
      <point x="58" y="680" type="line" />
    </contour>
  </outline>
</glyph>
<glyph name="Yacyr" format="2">
  <advance width="603" />
  <unicode hex="042F" />
  <guideline x="336" y="0" angle="90" name="h1" />
  <anchor x="336" y="746" name="top" />
  <outline>
    <contour>
      <point x="29" y="0" type="line" />
      <point x="179" y="0" type="line" />
      <point x="312" y="274" type="line" />
      <point x="416" y="274" type="line" />
      <point x="416" y="0" type="line" />
      <point x="545" y="0" type="line" />
      <point x="545" y="680" type="line" />
      <point x="279" y="680" type="line" smooth="yes" />
      <point x="143" y="680" />
      <point x="58" y="603" />
      <point x="58" y="476" type="curve" smooth="yes" />
      <point x="58" y="386" />
      <point x="101" y="321" />
      <point x="181" y="292" type="curve" />
    </contour>
    <contour>
      <point x="186" y="476" type="curve" smooth="yes" />
      <point x="186" y="534" />
      <point x="222" y="568" />
      <point x="284" y="568" type="curve" smooth="yes" />
      <point x="416" y="568" type="line" />
      <point x="416" y="382" type="line" />
      <point x="284" y="382" type="line" smooth="yes" />
      <point x="221" y="382" />
      <point x="186" y="416" />
    </contour>
  </outline>
</glyph>
<glyph name="becyr" format="2">
  <advance width="510" />
  <unicode hex="0431" />
  <outline>
    <contour>
      <point x="256" y="-7" type="curve" smooth="yes" />
      <point x="383" y="-7" />
      <point x="466" y="79" />
      <point x="466" y="210" type="curve" smooth="yes" />
      <point x="466" y="251" type="line" smooth="yes" />
      <point x="466" y="370" />
      <point x="411" y="467" />
      <point x="287" y="467" type="curve" smooth="yes" />
      <point x="237" y="467" />
      <point x="194" y="448" />
      <point x="166" y="416" type="curve" />
      <point x="166" y="562" />
      <point x="280" y="506" />
      <point x="396" y="553" type="curve" />
      <point x="396" y="680" type="line" />
      <point x="257" y="610" />
      <point x="44" y="675" />
      <point x="45" y="425" type="curve" smooth="yes" />
      <point x="45" y="233" type="line" smooth="yes" />
      <point x="45" y="82" />
      <point x="105" y="-7" />
    </contour>
    <contour>
      <point x="166" y="214" type="curve" smooth="yes" />
      <point x="166" y="247" type="line" smooth="yes" />
      <point x="166" y="307" />
      <point x="191" y="359" />
      <point x="257" y="359" type="curve" smooth="yes" />
      <point x="323" y="359" />
      <point x="344" y="309" />
      <point x="344" y="247" type="curve" smooth="yes" />
      <point x="344" y="214" type="line" smooth="yes" />
      <point x="344" y="153" />
      <point x="320" y="102" />
      <point x="254" y="102" type="curve" smooth="yes" />
      <point x="188" y="102" />
      <point x="166" y="151" />
    </contour>
  </outline>
</glyph>
<glyph name="vecyr" format="2">
  <advance width="510" />
  <unicode hex="0432" />
  <outline>
    <contour>
      <point x="53" y="0" type="line" />
      <point x="298" y="0" type="line" smooth="yes" />
      <point x="397" y="0" />
      <point x="457" y="57" />
      <point x="457" y="150" type="curve" smooth="yes" />
      <point x="457" y="204" />
      <point x="436" y="255" />
      <point x="378" y="278" type="curve" />
      <point x="414" y="300" />
      <point x="438" y="343" />
      <point x="438" y="391" type="curve" smooth="yes" />
      <point x="438" y="461" />
      <point x="385" y="512" />
      <point x="308" y="512" type="curve" smooth="yes" />
      <point x="53" y="512" type="line" />
    </contour>
    <contour>
      <point x="174" y="107" type="line" />
      <point x="174" y="201" type="line" />
      <point x="293" y="201" type="line" smooth="yes" />
      <point x="316" y="201" />
      <point x="336" y="178" />
      <point x="336" y="156" type="curve" smooth="yes" />
      <point x="336" y="134" />
      <point x="316" y="107" />
      <point x="293" y="107" type="curve" smooth="yes" />
    </contour>
    <contour>
      <point x="174" y="308" type="line" />
      <point x="174" y="405" type="line" />
      <point x="274" y="405" type="line" smooth="yes" />
      <point x="297" y="405" />
      <point x="316" y="380" />
      <point x="316" y="357" type="curve" smooth="yes" />
      <point x="316" y="336" />
      <point x="297" y="308" />
      <point x="274" y="308" type="curve" smooth="yes" />
    </contour>
  </outline>
</glyph>
<glyph name="gecyr" format="2">
  <advance width="352" />
  <unicode hex="0433" />
  <guideline x="201" y="0" angle="90" name="h1" />
  <anchor x="201" y="579" name="top" />
  <outline>
    <contour>
      <point x="53" y="0" type="line" />
      <point x="175" y="0" type="line" />
      <point x="175" y="405" type="line" />
      <point x="335" y="405" type="line" />
      <point x="335" y="512" type="line" />
      <point x="53" y="512" type="line" />
    </contour>
  </outline>
</glyph>
<glyph name="decyr" format="2">
  <advance width="599" />
  <unicode hex="0434" />
  <guideline x="249" y="355" angle="84.7422" />
  <guideline x="143" y="512" angle="264.33" />
  <outline>
    <contour>
      <point x="20" y="-164" type="line" />
      <point x="141" y="-164" type="line" />
      <point x="141" y="0" type="line" />
      <point x="459" y="0" type="line" />
      <point x="459" y="-164" type="line" />
      <point x="580" y="-164" type="line" />
      <point x="580" y="108" type="line" />
      <point x="508" y="108" type="line" />
      <point x="508" y="512" type="line" />
      <point x="146" y="512" type="line" />
      <point x="119" y="235" type="line" smooth="yes" />
      <point x="114" y="169" />
      <point x="89" y="108" />
      <point x="54" y="108" type="curve" />
      <point x="20" y="108" type="line" />
    </contour>
    <contour>
      <point x="211" y="108" type="line" />
      <point x="227" y="139" />
      <point x="238" y="178" />
      <point x="240" y="215" type="curve" smooth="yes" />
      <point x="259" y="421" type="line" />
      <point x="387" y="421" type="line" />
      <point x="387" y="108" type="line" />
    </contour>
  </outline>
</glyph>
<glyph name="zhecyr" format="2">
  <advance width="786" />
  <unicode hex="0436" />
  <guideline x="111" y="0" angle="90" name="vertical" />
  <guideline x="0" y="680" angle="0" name="horizontal" />
  <guideline x="622" y="0" angle="90" name="vertical" />
  <guideline x="0" y="680" angle="0" name="horizontal" />
  <anchor x="622" y="680" name="top" />
  <outline>
    <component base="kacyr" xOffset="279" />
    <contour>
      <point x="9" y="0" type="line" />
      <point x="156" y="0" type="line" />
      <point x="272" y="214" type="line" />
      <point x="382" y="214" type="line" />
      <point x="382" y="320" type="line" />
      <point x="304" y="320" type="line" />
      <point x="178" y="512" type="line" />
      <point x="33" y="512" type="line" />
      <point x="177" y="308" type="line" />
    </contour>
  </outline>
</glyph>
<glyph name="zecyr" format="2">
  <advance width="502" />
  <unicode hex="0437" />
  <outline>
    <contour>
      <point x="249" y="-6" type="curve" smooth="yes" />
      <point x="372" y="-6" />
      <point x="453" y="56" />
      <point x="453" y="150" type="curve" smooth="yes" />
      <point x="453" y="156" type="line" smooth="yes" />
      <point x="453" y="208" />
      <point x="422" y="250" />
      <point x="385" y="269" type="curve" />
      <point x="420" y="287" />
      <point x="443" y="325" />
      <point x="443" y="368" type="curve" smooth="yes" />
      <point x="443" y="372" type="line" smooth="yes" />
      <point x="443" y="464" />
      <point x="374" y="518" />
      <point x="257" y="518" type="curve" smooth="yes" />
      <point x="135" y="518" />
      <point x="44" y="449" />
      <point x="44" y="346" type="curve" smooth="yes" />
      <point x="44" y="338" type="line" />
      <point x="167" y="338" type="line" />
      <point x="167" y="342" type="line" smooth="yes" />
      <point x="167" y="383" />
      <point x="203" y="410" />
      <point x="252" y="410" type="curve" smooth="yes" />
      <point x="293" y="410" />
      <point x="321" y="389" />
      <point x="321" y="362" type="curve" smooth="yes" />
      <point x="321" y="357" type="line" smooth="yes" />
      <point x="321" y="320" />
      <point x="297" y="306" />
      <point x="251" y="306" type="curve" smooth="yes" />
      <point x="206" y="306" type="line" />
      <point x="206" y="215" type="line" />
      <point x="265" y="215" type="line" smooth="yes" />
      <point x="306" y="215" />
      <point x="330" y="196" />
      <point x="330" y="161" type="curve" smooth="yes" />
      <point x="330" y="156" type="line" smooth="yes" />
      <point x="330" y="122" />
      <point x="300" y="102" />
      <point x="255" y="102" type="curve" smooth="yes" />
      <point x="203" y="102" />
      <point x="167" y="125" />
      <point x="167" y="159" type="curve" smooth="yes" />
      <point x="167" y="164" type="line" />
      <point x="44" y="164" type="line" />
      <point x="44" y="157" type="line" smooth="yes" />
      <point x="44" y="59" />
      <point x="125" y="-6" />
    </contour>
  </outline>
</glyph>
<glyph name="icyr" format="2">
  <advance width="568" />
  <unicode hex="0438" />
  <guideline x="280" y="0" angle="90" name="h1" />
  <anchor x="280" y="579" name="top" />
  <outline>
    <contour>
      <point x="53" y="0" type="line" />
      <point x="184" y="0" type="line" />
      <point x="394" y="341" type="line" />
      <point x="394" y="0" type="line" />
      <point x="516" y="0" type="line" />
      <point x="516" y="512" type="line" />
      <point x="385" y="512" type="line" />
      <point x="174" y="171" type="line" />
      <point x="174" y="512" type="line" />
      <point x="53" y="512" type="line" />
    </contour>
  </outline>
</glyph>
<glyph name="kacyr" format="2">
  <advance width="518" />
  <unicode hex="043A" />
  <guideline x="51" y="264" angle="0" />
  <guideline x="0" y="248" angle="0" />
  <guideline x="0" y="266" angle="0" />
  <guideline x="238" y="0" angle="90" name="h1" />
  <anchor x="241" y="579" name="top" />
  <outline>
    <contour>
      <point x="53" y="0" type="line" />
      <point x="175" y="0" type="line" />
      <point x="175" y="215" type="line" />
      <point x="239" y="215" type="line" />
      <point x="361" y="0" type="line" />
      <point x="510" y="0" type="line" />
      <point x="332" y="307" type="line" />
      <point x="488" y="512" type="line" />
      <point x="340" y="512" type="line" />
      <point x="204" y="321" type="line" />
      <point x="175" y="321" type="line" />
      <point x="175" y="512" type="line" />
      <point x="53" y="512" type="line" />
    </contour>
  </outline>
</glyph>
<glyph name="elcyr" format="2">
  <advance width="512" />
  <unicode hex="043B" />
  <outline>
    <contour>
      <point x="11" y="0" type="line" />
      <point x="127" y="0" />
      <point x="184" y="51" />
      <point x="194" y="167" type="curve" smooth="yes" />
      <point x="218" y="428" type="line" />
      <point x="338" y="428" type="line" />
      <point x="338" y="0" type="line" />
      <point x="459" y="0" type="line" />
      <point x="459" y="512" type="line" />
      <point x="106" y="512" type="line" />
      <point x="74" y="195" type="line" smooth="yes" />
      <point x="69" y="142" />
      <point x="42" y="108" />
      <point x="11" y="108" type="curve" />
    </contour>
  </outline>
</glyph>
<glyph name="emcyr" format="2">
  <advance width="714" />
  <unicode hex="043C" />
  <outline>
    <contour>
      <point x="53" y="0" type="line" />
      <point x="174" y="0" type="line" />
      <point x="174" y="344" type="line" />
      <point x="322" y="71" type="line" />
      <point x="391" y="71" type="line" />
      <point x="540" y="344" type="line" />
      <point x="540" y="0" type="line" />
      <point x="661" y="0" type="line" />
      <point x="661" y="512" type="line" />
      <point x="505" y="512" type="line" />
      <point x="357" y="240" type="line" />
      <point x="208" y="512" type="line" />
      <point x="53" y="512" type="line" />
    </contour>
  </outline>
</glyph>
<glyph name="encyr" format="2">
  <advance width="524" />
  <unicode hex="043D" />
  <outline>
    <contour>
      <point x="53" y="0" type="line" />
      <point x="174" y="0" type="line" />
      <point x="174" y="219" type="line" />
      <point x="350" y="219" type="line" />
      <point x="350" y="0" type="line" />
      <point x="471" y="0" type="line" />
      <point x="471" y="512" type="line" />
      <point x="350" y="512" type="line" />
      <point x="350" y="327" type="line" />
      <point x="174" y="327" type="line" />
      <point x="174" y="512" type="line" />
      <point x="53" y="512" type="line" />
    </contour>
  </outline>
</glyph>
<glyph name="pecyr" format="2">
  <advance width="516" />
  <unicode hex="043F" />
  <outline>
    <contour>
      <point x="53" y="0" type="line" />
      <point x="174" y="0" type="line" />
      <point x="174" y="404" type="line" />
      <point x="341" y="404" type="line" />
      <point x="341" y="0" type="line" />
      <point x="463" y="0" type="line" />
      <point x="463" y="512" type="line" />
      <point x="53" y="512" type="line" />
    </contour>
  </outline>
</glyph>
